<svg id="Layer_1" data-name="Layer 1" xmlns="http://www.w3.org/2000/svg" xmlns:xlink="http://www.w3.org/1999/xlink" viewBox="0 0 256 256"><defs><style>.cls-1{fill:#fff;}.cls-2{fill:url(#linear-gradient);}</style><linearGradient id="linear-gradient" x1="74.94" y1="179.07" x2="181.06" y2="90.57" gradientTransform="matrix(1, 0, 0, -1, 0, 258)" gradientUnits="userSpaceOnUse"><stop offset="0" stop-color="#60c6c5"/><stop offset="1" stop-color="#69cce3" stop-opacity="0.08"/></linearGradient></defs><path class="cls-1" d="M71.78,116.08a1.41,1.41,0,0,1,.16.67,1.27,1.27,0,0,1-.47,1,1.55,1.55,0,0,1-1.07.39,1.39,1.39,0,0,1-1.38-.95l-2.81-6.4H51.32l-2.84,6.4a1.42,1.42,0,0,1-1.39.95,1.66,1.66,0,0,1-1.1-.39,1.36,1.36,0,0,1-.48-1,1.47,1.47,0,0,1,.16-.63L57,91a1.76,1.76,0,0,1,.71-.83,2.06,2.06,0,0,1,1-.27,1.86,1.86,0,0,1,1.06.31,1.7,1.7,0,0,1,.71.79Zm-19.27-8H65L58.75,93.92Zm33.2-9.88a8.14,8.14,0,0,1,4.46,1.23,8,8,0,0,1,3,3.47,11.93,11.93,0,0,1,1.07,5.22,12.28,12.28,0,0,1-1.07,5.29,8.42,8.42,0,0,1-3,3.52,8,8,0,0,1-4.46,1.26,7.7,7.7,0,0,1-3.95-1,6.37,6.37,0,0,1-2.53-2.8v2.13a1.56,1.56,0,0,1-.43,1.15,1.49,1.49,0,0,1-1.15.43,1.59,1.59,0,0,1-1.18-.43,1.57,1.57,0,0,1-.44-1.15V91.43a1.51,1.51,0,0,1,.44-1.11,1.59,1.59,0,0,1,1.18-.43,1.49,1.49,0,0,1,1.15.43,1.42,1.42,0,0,1,.43,1.11V102a6.37,6.37,0,0,1,2.53-2.8A7.7,7.7,0,0,1,85.71,98.22Zm-.63,17.34a5.21,5.21,0,0,0,4.34-1.93A8.72,8.72,0,0,0,91,108.14a8.26,8.26,0,0,0-1.54-5.34,5.94,5.94,0,0,0-8.69,0,8.57,8.57,0,0,0-1.5,5.42,8.72,8.72,0,0,0,1.5,5.45A5.3,5.3,0,0,0,85.08,115.56ZM107,118.21a9.43,9.43,0,0,1-4.82-1.22,8.43,8.43,0,0,1-3.2-3.48,12.14,12.14,0,0,1-1.1-5.29A11.88,11.88,0,0,1,99,103a8.27,8.27,0,0,1,3.2-3.51,10.06,10.06,0,0,1,9.64,0A7.91,7.91,0,0,1,115,103a11.49,11.49,0,0,1,1.15,5.26,11.73,11.73,0,0,1-1.15,5.29,8.05,8.05,0,0,1-3.2,3.48A9.41,9.41,0,0,1,107,118.21Zm0-2.65a5.28,5.28,0,0,0,4.35-1.85,8.59,8.59,0,0,0,1.54-5.49,8.45,8.45,0,0,0-1.54-5.42,5.86,5.86,0,0,0-8.69,0,8.39,8.39,0,0,0-1.54,5.42,8.63,8.63,0,0,0,1.5,5.45A5.32,5.32,0,0,0,107,115.56ZM135.55,98.3a1.45,1.45,0,0,1,1.14.44,1.54,1.54,0,0,1,.44,1.14v16.71a1.51,1.51,0,0,1-.44,1.11,1.45,1.45,0,0,1-1.14.43,1.65,1.65,0,0,1-1.15-.39,1.6,1.6,0,0,1-.39-1.11v-2a6.21,6.21,0,0,1-2.57,2.65,7.32,7.32,0,0,1-3.67.91,6.67,6.67,0,0,1-5.18-1.9,8.23,8.23,0,0,1-1.74-5.68V99.88a1.54,1.54,0,0,1,.44-1.14,1.59,1.59,0,0,1,1.18-.44,1.48,1.48,0,0,1,1.15.44,1.54,1.54,0,0,1,.43,1.14v10.67a5.85,5.85,0,0,0,1,3.79,4.08,4.08,0,0,0,3.24,1.18,5.35,5.35,0,0,0,4.07-1.62,6.1,6.1,0,0,0,1.54-4.34V99.88a1.54,1.54,0,0,1,.43-1.14A1.62,1.62,0,0,1,135.55,98.3ZM152,115.6c.92.08,1.39.5,1.39,1.27a1.17,1.17,0,0,1-.52,1,2.34,2.34,0,0,1-1.46.24l-1.07-.08a6.74,6.74,0,0,1-4.66-1.89,7.29,7.29,0,0,1-1.5-5v-9.92H141.5a1.66,1.66,0,0,1-1.07-.31,1.23,1.23,0,0,1-.36-.91,1.27,1.27,0,0,1,.36-1,1.52,1.52,0,0,1,1.07-.35h2.64V94.23a1.45,1.45,0,0,1,.44-1.14,1.59,1.59,0,0,1,1.18-.44,1.55,1.55,0,0,1,1.15.44,1.45,1.45,0,0,1,.43,1.14V98.7h4.39a1.29,1.29,0,0,1,1,.35,1.2,1.2,0,0,1,.4,1,1.16,1.16,0,0,1-.4.91,1.41,1.41,0,0,1-1,.31h-4.39V111.3a4.72,4.72,0,0,0,.87,3.16,4,4,0,0,0,2.69,1.06ZM178,118.25c-3.63,0-6.39-1-8.26-2.85S167,110.72,167,107V91.55a1.65,1.65,0,0,1,.43-1.19,1.56,1.56,0,0,1,1.19-.47,1.51,1.51,0,0,1,1.15.47,1.65,1.65,0,0,1,.43,1.19v15.76q0,4.06,2,6.12a7.9,7.9,0,0,0,5.89,2q3.87,0,5.85-2t2-6.12V91.55a1.56,1.56,0,0,1,1.62-1.66,1.56,1.56,0,0,1,1.19.47,1.61,1.61,0,0,1,.43,1.19V107q0,5.49-2.84,8.37T178,118.25Zm23.73,0a14.12,14.12,0,0,1-3.48-.43,10.43,10.43,0,0,1-2.88-1.23,4.66,4.66,0,0,1-1-.87,1.91,1.91,0,0,1-.28-1,1.26,1.26,0,0,1,.28-.83,1,1,0,0,1,.79-.35,2.94,2.94,0,0,1,1.38.59,14.34,14.34,0,0,0,2.33,1.15,9.49,9.49,0,0,0,2.93.39,6.17,6.17,0,0,0,3.31-.75,2.42,2.42,0,0,0,1.19-2.17,2.06,2.06,0,0,0-.44-1.38,3.32,3.32,0,0,0-1.5-1,19.33,19.33,0,0,0-3.12-.87,11.76,11.76,0,0,1-5-2,4.25,4.25,0,0,1-1.51-3.44,5,5,0,0,1,.95-3A6.37,6.37,0,0,1,198.31,99a9.38,9.38,0,0,1,3.83-.75,10,10,0,0,1,3,.44,8.37,8.37,0,0,1,2.57,1.14,2.55,2.55,0,0,1,1.34,2,1.27,1.27,0,0,1-.31.87,1,1,0,0,1-.75.35,2.9,2.9,0,0,1-1.42-.67,13.48,13.48,0,0,0-2.1-1.11,6.69,6.69,0,0,0-2.45-.39,5,5,0,0,0-3,.83,2.61,2.61,0,0,0-1.1,2.21,2.41,2.41,0,0,0,.39,1.42,3.86,3.86,0,0,0,1.38.95,18.76,18.76,0,0,0,2.81.79,20.12,20.12,0,0,1,4.15,1.3,4.89,4.89,0,0,1,2.13,1.74,5,5,0,0,1,.63,2.61,4.79,4.79,0,0,1-2.09,4A9.31,9.31,0,0,1,201.75,118.21Z"/><rect class="cls-2" x="44.99" y="114.85" width="166.03" height="16.66" rx="4.94"/></svg>