<svg width="251" height="54" viewBox="0 0 251 54" fill="none" xmlns="http://www.w3.org/2000/svg">
<rect width="251" height="54" rx="8" fill="url(#paint0_linear_255:1952)"/>
<path d="M30.112 32.128C29.0667 32.128 28.1547 31.8933 27.376 31.424C26.608 30.9547 26.016 30.288 25.6 29.424C25.184 28.56 24.976 27.5413 24.976 26.368C24.976 25.184 25.1787 24.16 25.584 23.296C26 22.4213 26.592 21.7547 27.36 21.296C28.1387 20.8267 29.056 20.592 30.112 20.592C31.168 20.592 32.08 20.8267 32.848 21.296C33.6267 21.7547 34.2187 22.4213 34.624 23.296C35.04 24.16 35.248 25.1787 35.248 26.352C35.248 27.5253 35.04 28.5493 34.624 29.424C34.208 30.288 33.6107 30.9547 32.832 31.424C32.064 31.8933 31.1573 32.128 30.112 32.128ZM30.112 31.008C31.3067 31.008 32.2347 30.608 32.896 29.808C33.568 28.9973 33.904 27.8453 33.904 26.352C33.904 24.8587 33.5733 23.712 32.912 22.912C32.2507 22.112 31.3173 21.712 30.112 21.712C28.9173 21.712 27.984 22.1173 27.312 22.928C26.6507 23.728 26.32 24.8693 26.32 26.352C26.32 27.8347 26.6507 28.9813 27.312 29.792C27.984 30.6027 28.9173 31.008 30.112 31.008ZM41.3388 24.016C43.2054 24.016 44.1388 25.0453 44.1388 27.104V31.44C44.1388 31.6427 44.0801 31.8027 43.9628 31.92C43.8561 32.0267 43.7014 32.08 43.4988 32.08C43.2961 32.08 43.1361 32.0267 43.0188 31.92C42.9014 31.8027 42.8428 31.6427 42.8428 31.44V27.184C42.8428 26.4587 42.6988 25.9307 42.4108 25.6C42.1334 25.2693 41.6854 25.104 41.0668 25.104C40.3521 25.104 39.7814 25.3227 39.3548 25.76C38.9281 26.1973 38.7148 26.7893 38.7148 27.536V31.44C38.7148 31.6427 38.6561 31.8027 38.5388 31.92C38.4321 32.0267 38.2774 32.08 38.0748 32.08C37.8721 32.08 37.7121 32.0267 37.5948 31.92C37.4774 31.8027 37.4188 31.6427 37.4188 31.44V24.688C37.4188 24.496 37.4774 24.3413 37.5948 24.224C37.7121 24.1067 37.8721 24.048 38.0748 24.048C38.2668 24.048 38.4161 24.1067 38.5228 24.224C38.6401 24.3413 38.6988 24.4907 38.6988 24.672V25.488C38.9548 25.008 39.3121 24.6453 39.7708 24.4C40.2294 24.144 40.7521 24.016 41.3388 24.016ZM47.1685 32.08C46.9765 32.08 46.8165 32.0267 46.6885 31.92C46.5712 31.8027 46.5125 31.6427 46.5125 31.44V21.28C46.5125 21.0773 46.5712 20.9227 46.6885 20.816C46.8165 20.6987 46.9765 20.64 47.1685 20.64C47.3498 20.64 47.4992 20.6987 47.6165 20.816C47.7445 20.9227 47.8085 21.0773 47.8085 21.28V31.44C47.8085 31.6427 47.7445 31.8027 47.6165 31.92C47.4992 32.0267 47.3498 32.08 47.1685 32.08ZM55.8473 24.448C55.9646 24.192 56.1513 24.064 56.4073 24.064C56.5673 24.064 56.7113 24.1173 56.8393 24.224C56.9673 24.3307 57.0312 24.464 57.0312 24.624C57.0312 24.72 57.0099 24.8053 56.9673 24.88L52.4713 34.576C52.4179 34.6933 52.3379 34.784 52.2313 34.848C52.1353 34.912 52.0339 34.944 51.9273 34.944C51.7673 34.944 51.6233 34.8907 51.4953 34.784C51.3779 34.688 51.3193 34.56 51.3193 34.4C51.3193 34.3147 51.3406 34.2293 51.3832 34.144L52.5033 31.728L49.3353 24.88C49.2926 24.8053 49.2713 24.7253 49.2713 24.64C49.2713 24.48 49.3406 24.3413 49.4793 24.224C49.6286 24.1067 49.7886 24.048 49.9593 24.048C50.0659 24.048 50.1673 24.08 50.2633 24.144C50.3699 24.208 50.4499 24.2987 50.5033 24.416L53.1753 30.416L55.8473 24.448ZM66.015 21.744C65.4497 21.7867 65.023 21.968 64.735 22.288C64.447 22.5973 64.303 23.0667 64.303 23.696V24.208H66.079C66.2603 24.208 66.399 24.256 66.495 24.352C66.591 24.448 66.639 24.576 66.639 24.736C66.639 24.896 66.591 25.0187 66.495 25.104C66.399 25.1893 66.2603 25.232 66.079 25.232H64.303V31.44C64.303 31.6427 64.239 31.8027 64.111 31.92C63.9937 32.0267 63.8443 32.08 63.663 32.08C63.471 32.08 63.311 32.0267 63.183 31.92C63.0657 31.8027 63.007 31.6427 63.007 31.44V25.232H61.935C61.7537 25.232 61.6097 25.1893 61.503 25.104C61.407 25.008 61.359 24.8853 61.359 24.736C61.359 24.576 61.407 24.448 61.503 24.352C61.6097 24.256 61.7537 24.208 61.935 24.208H63.007V23.92C63.007 22.96 63.247 22.208 63.727 21.664C64.207 21.1093 64.895 20.8 65.791 20.736L66.207 20.704C66.4843 20.6827 66.6817 20.7093 66.799 20.784C66.927 20.8587 66.991 20.992 66.991 21.184C66.991 21.4933 66.8043 21.6693 66.431 21.712L66.015 21.744ZM70.9789 32.112C70.2429 32.112 69.5922 31.9467 69.0269 31.616C68.4722 31.2853 68.0402 30.816 67.7309 30.208C67.4322 29.5893 67.2829 28.8747 67.2829 28.064C67.2829 27.2533 67.4322 26.544 67.7309 25.936C68.0402 25.3173 68.4722 24.8427 69.0269 24.512C69.5922 24.1813 70.2429 24.016 70.9789 24.016C71.7149 24.016 72.3655 24.1813 72.9309 24.512C73.4962 24.8427 73.9282 25.3173 74.2269 25.936C74.5362 26.544 74.6909 27.2533 74.6909 28.064C74.6909 28.8747 74.5362 29.5893 74.2269 30.208C73.9282 30.816 73.4962 31.2853 72.9309 31.616C72.3655 31.9467 71.7149 32.112 70.9789 32.112ZM70.9789 31.04C71.7469 31.04 72.3335 30.7893 72.7389 30.288C73.1549 29.776 73.3629 29.0347 73.3629 28.064C73.3629 27.1147 73.1549 26.384 72.7389 25.872C72.3229 25.3493 71.7362 25.088 70.9789 25.088C70.2215 25.088 69.6349 25.3493 69.2189 25.872C68.8029 26.384 68.5949 27.1147 68.5949 28.064C68.5949 29.024 68.7975 29.76 69.2029 30.272C69.6189 30.784 70.2109 31.04 70.9789 31.04ZM80.4779 24.048C80.9259 24.016 81.1499 24.1973 81.1499 24.592C81.1499 24.7627 81.1019 24.9013 81.0059 25.008C80.9099 25.104 80.7445 25.1627 80.5099 25.184L80.0299 25.232C79.3152 25.296 78.7819 25.552 78.4299 26C78.0885 26.4373 77.9179 26.9547 77.9179 27.552V31.44C77.9179 31.6533 77.8592 31.8133 77.7419 31.92C77.6245 32.0267 77.4699 32.08 77.2779 32.08C77.0859 32.08 76.9259 32.0267 76.7979 31.92C76.6805 31.8027 76.6219 31.6427 76.6219 31.44V24.688C76.6219 24.4853 76.6859 24.3307 76.8139 24.224C76.9419 24.1067 77.0965 24.048 77.2779 24.048C77.4485 24.048 77.5925 24.1067 77.7099 24.224C77.8272 24.3307 77.8859 24.48 77.8859 24.672V25.568C78.1099 25.0987 78.4245 24.7413 78.8299 24.496C79.2459 24.2507 79.7205 24.1067 80.2539 24.064L80.4779 24.048ZM87.2515 32C87.0488 32 86.8835 31.9413 86.7555 31.824C86.6382 31.7067 86.5795 31.552 86.5795 31.36V21.36C86.5795 21.168 86.6382 21.0133 86.7555 20.896C86.8835 20.7787 87.0488 20.72 87.2515 20.72H90.3715C92.1742 20.72 93.5662 21.2107 94.5475 22.192C95.5395 23.1627 96.0355 24.5493 96.0355 26.352C96.0355 28.1547 95.5395 29.5467 94.5475 30.528C93.5555 31.5093 92.1635 32 90.3715 32H87.2515ZM90.2915 30.88C93.2142 30.88 94.6755 29.3707 94.6755 26.352C94.6755 23.344 93.2142 21.84 90.2915 21.84H87.8915V30.88H90.2915ZM104.248 30.192C104.365 30.192 104.466 30.24 104.552 30.336C104.637 30.432 104.68 30.5547 104.68 30.704C104.68 30.9707 104.493 31.216 104.12 31.44C103.736 31.664 103.33 31.8347 102.904 31.952C102.477 32.0587 102.061 32.112 101.656 32.112C100.45 32.112 99.4956 31.7547 98.7916 31.04C98.0983 30.3253 97.7516 29.3387 97.7516 28.08C97.7516 27.28 97.9063 26.576 98.2156 25.968C98.525 25.3493 98.957 24.8693 99.5116 24.528C100.077 24.1867 100.717 24.016 101.432 24.016C102.445 24.016 103.25 24.3467 103.848 25.008C104.445 25.6693 104.744 26.5653 104.744 27.696C104.744 27.9093 104.701 28.064 104.616 28.16C104.53 28.256 104.392 28.304 104.2 28.304H99.0476C99.1436 30.1387 100.013 31.056 101.656 31.056C102.072 31.056 102.429 31.0027 102.728 30.896C103.026 30.7787 103.346 30.624 103.688 30.432C103.965 30.272 104.152 30.192 104.248 30.192ZM101.448 25.024C100.765 25.024 100.216 25.2373 99.7996 25.664C99.3943 26.0907 99.1543 26.6933 99.0796 27.472H103.608C103.586 26.6827 103.389 26.08 103.016 25.664C102.642 25.2373 102.12 25.024 101.448 25.024ZM109.277 32.112C108.786 32.112 108.317 32.0533 107.869 31.936C107.432 31.8187 107.042 31.6533 106.701 31.44C106.509 31.312 106.37 31.1947 106.285 31.088C106.21 30.9707 106.173 30.832 106.173 30.672C106.173 30.5333 106.21 30.4213 106.285 30.336C106.37 30.24 106.477 30.192 106.605 30.192C106.733 30.192 106.92 30.272 107.165 30.432C107.485 30.624 107.8 30.7787 108.109 30.896C108.429 31.0027 108.824 31.056 109.293 31.056C109.869 31.056 110.317 30.9547 110.637 30.752C110.957 30.5493 111.117 30.256 111.117 29.872C111.117 29.6373 111.058 29.4507 110.941 29.312C110.824 29.1627 110.621 29.0347 110.333 28.928C110.045 28.8107 109.624 28.6933 109.069 28.576C108.13 28.3733 107.458 28.1013 107.053 27.76C106.648 27.4187 106.445 26.9547 106.445 26.368C106.445 25.9093 106.573 25.504 106.829 25.152C107.085 24.8 107.437 24.5227 107.885 24.32C108.344 24.1173 108.861 24.016 109.437 24.016C109.853 24.016 110.253 24.0747 110.637 24.192C111.032 24.2987 111.378 24.4533 111.677 24.656C112.04 24.912 112.221 25.1787 112.221 25.456C112.221 25.5947 112.178 25.712 112.093 25.808C112.008 25.904 111.906 25.952 111.789 25.952C111.661 25.952 111.469 25.8613 111.213 25.68C110.914 25.488 110.632 25.3387 110.365 25.232C110.098 25.1253 109.768 25.072 109.373 25.072C108.872 25.072 108.466 25.184 108.157 25.408C107.858 25.632 107.709 25.9307 107.709 26.304C107.709 26.5387 107.762 26.7307 107.869 26.88C107.986 27.0187 108.173 27.1467 108.429 27.264C108.696 27.3707 109.074 27.4773 109.565 27.584C110.29 27.744 110.85 27.92 111.245 28.112C111.65 28.304 111.938 28.5387 112.109 28.816C112.28 29.0933 112.365 29.4453 112.365 29.872C112.365 30.544 112.082 31.088 111.517 31.504C110.952 31.9093 110.205 32.112 109.277 32.112ZM120.565 30.976C120.735 31.136 120.821 31.3067 120.821 31.488C120.821 31.648 120.762 31.7867 120.645 31.904C120.538 32.0213 120.405 32.08 120.245 32.08C120.106 32.08 119.962 32.016 119.813 31.888L115.637 28.288V31.44C115.637 31.6427 115.573 31.8027 115.445 31.92C115.327 32.0267 115.178 32.08 114.997 32.08C114.805 32.08 114.645 32.0267 114.517 31.92C114.399 31.8027 114.341 31.6427 114.341 31.44V21.28C114.341 21.0773 114.399 20.9227 114.517 20.816C114.645 20.6987 114.805 20.64 114.997 20.64C115.178 20.64 115.327 20.6987 115.445 20.816C115.573 20.9227 115.637 21.0773 115.637 21.28V27.776L119.461 24.272C119.589 24.144 119.733 24.08 119.893 24.08C120.053 24.08 120.191 24.1387 120.309 24.256C120.426 24.3733 120.485 24.512 120.485 24.672C120.485 24.8533 120.41 25.0133 120.261 25.152L117.109 27.968L120.565 30.976ZM125.878 31.056C126.251 31.088 126.438 31.2587 126.438 31.568C126.438 31.7493 126.369 31.888 126.23 31.984C126.102 32.0693 125.905 32.1013 125.638 32.08L125.206 32.048C124.353 31.984 123.723 31.728 123.318 31.28C122.913 30.832 122.71 30.1547 122.71 29.248V25.232H121.638C121.457 25.232 121.313 25.1893 121.206 25.104C121.11 25.008 121.062 24.8853 121.062 24.736C121.062 24.576 121.11 24.448 121.206 24.352C121.313 24.256 121.457 24.208 121.638 24.208H122.71V22.4C122.71 22.1973 122.769 22.0427 122.886 21.936C123.003 21.8187 123.163 21.76 123.366 21.76C123.558 21.76 123.713 21.8187 123.83 21.936C123.947 22.0427 124.006 22.1973 124.006 22.4V24.208H125.782C125.953 24.208 126.086 24.256 126.182 24.352C126.289 24.448 126.342 24.576 126.342 24.736C126.342 24.8853 126.289 25.008 126.182 25.104C126.086 25.1893 125.953 25.232 125.782 25.232H124.006V29.312C124.006 29.8987 124.123 30.3253 124.358 30.592C124.603 30.848 124.966 30.992 125.446 31.024L125.878 31.056ZM130.948 32.112C130.212 32.112 129.561 31.9467 128.996 31.616C128.441 31.2853 128.009 30.816 127.7 30.208C127.401 29.5893 127.252 28.8747 127.252 28.064C127.252 27.2533 127.401 26.544 127.7 25.936C128.009 25.3173 128.441 24.8427 128.996 24.512C129.561 24.1813 130.212 24.016 130.948 24.016C131.684 24.016 132.334 24.1813 132.9 24.512C133.465 24.8427 133.897 25.3173 134.196 25.936C134.505 26.544 134.66 27.2533 134.66 28.064C134.66 28.8747 134.505 29.5893 134.196 30.208C133.897 30.816 133.465 31.2853 132.9 31.616C132.334 31.9467 131.684 32.112 130.948 32.112ZM130.948 31.04C131.716 31.04 132.302 30.7893 132.708 30.288C133.124 29.776 133.332 29.0347 133.332 28.064C133.332 27.1147 133.124 26.384 132.708 25.872C132.292 25.3493 131.705 25.088 130.948 25.088C130.19 25.088 129.604 25.3493 129.188 25.872C128.772 26.384 128.564 27.1147 128.564 28.064C128.564 29.024 128.766 29.76 129.172 30.272C129.588 30.784 130.18 31.04 130.948 31.04ZM140.511 24.016C141.193 24.016 141.796 24.1867 142.319 24.528C142.841 24.8693 143.247 25.3493 143.535 25.968C143.823 26.576 143.967 27.2853 143.967 28.096C143.967 28.9067 143.823 29.616 143.535 30.224C143.247 30.8213 142.841 31.2853 142.319 31.616C141.807 31.9467 141.204 32.112 140.511 32.112C139.903 32.112 139.369 31.9787 138.911 31.712C138.463 31.4453 138.121 31.0667 137.887 30.576V34.336C137.887 34.528 137.828 34.6773 137.711 34.784C137.604 34.9013 137.449 34.96 137.247 34.96C137.044 34.96 136.884 34.9013 136.767 34.784C136.649 34.6667 136.591 34.5173 136.591 34.336V24.688C136.591 24.496 136.649 24.3413 136.767 24.224C136.884 24.1067 137.044 24.048 137.247 24.048C137.449 24.048 137.604 24.1067 137.711 24.224C137.828 24.3413 137.887 24.496 137.887 24.688V25.552C138.121 25.0613 138.463 24.6827 138.911 24.416C139.369 24.1493 139.903 24.016 140.511 24.016ZM140.255 31.04C141.012 31.04 141.599 30.784 142.015 30.272C142.431 29.76 142.639 29.0347 142.639 28.096C142.639 27.1573 142.431 26.4267 142.015 25.904C141.599 25.3707 141.012 25.104 140.255 25.104C139.497 25.104 138.911 25.36 138.495 25.872C138.089 26.384 137.887 27.1147 137.887 28.064C137.887 29.0133 138.089 29.7493 138.495 30.272C138.911 30.784 139.497 31.04 140.255 31.04Z" fill="black"/>
<path d="M203.354 27.3536C203.549 27.1583 203.549 26.8417 203.354 26.6464L200.172 23.4645C199.976 23.2692 199.66 23.2692 199.464 23.4645C199.269 23.6597 199.269 23.9763 199.464 24.1716L202.293 27L199.464 29.8284C199.269 30.0237 199.269 30.3403 199.464 30.5355C199.66 30.7308 199.976 30.7308 200.172 30.5355L203.354 27.3536ZM155 27.5H203V26.5H155V27.5Z" fill="black"/>
<defs>
<linearGradient id="paint0_linear_255:1952" x1="0" y1="0" x2="236.25" y2="91.9123" gradientUnits="userSpaceOnUse">
<stop stop-color="#15E8D8"/>
<stop offset="1" stop-color="#00F0FF"/>
</linearGradient>
</defs>
</svg>
