<svg width="156" height="46" viewBox="0 0 156 46" fill="none" xmlns="http://www.w3.org/2000/svg">
<rect width="156" height="46" rx="8" fill="url(#paint0_linear_246:507)"/>
<path d="M37 18L30 23L37 28V18Z" stroke="black" stroke-width="2" stroke-linecap="round" stroke-linejoin="round"/>
<path d="M28 16H17C15.8954 16 15 16.8954 15 18V28C15 29.1046 15.8954 30 17 30H28C29.1046 30 30 29.1046 30 28V18C30 16.8954 29.1046 16 28 16Z" stroke="black" stroke-width="2" stroke-linecap="round" stroke-linejoin="round"/>
<path d="M54.176 28.128C53.1093 28.128 52.1867 27.8987 51.408 27.44C50.6293 26.9707 50.0267 26.304 49.6 25.44C49.184 24.5653 48.976 23.536 48.976 22.352C48.976 21.1787 49.184 20.16 49.6 19.296C50.0267 18.4213 50.6293 17.7547 51.408 17.296C52.1867 16.8267 53.1093 16.592 54.176 16.592C54.8907 16.592 55.5627 16.7093 56.192 16.944C56.832 17.168 57.3867 17.4933 57.856 17.92C58.0267 18.08 58.112 18.2667 58.112 18.48C58.112 18.6293 58.0693 18.7627 57.984 18.88C57.8987 18.9867 57.7973 19.04 57.68 19.04C57.552 19.04 57.3973 18.9813 57.216 18.864C56.672 18.4373 56.176 18.1387 55.728 17.968C55.2907 17.7973 54.784 17.712 54.208 17.712C52.9707 17.712 52.016 18.1173 51.344 18.928C50.6827 19.728 50.352 20.8693 50.352 22.352C50.352 23.8453 50.6827 24.9973 51.344 25.808C52.016 26.608 52.9707 27.008 54.208 27.008C54.7733 27.008 55.28 26.9227 55.728 26.752C56.176 26.5813 56.672 26.2827 57.216 25.856C57.3973 25.7387 57.552 25.68 57.68 25.68C57.7973 25.68 57.8987 25.7333 57.984 25.84C58.0693 25.9467 58.112 26.08 58.112 26.24C58.112 26.4533 58.0267 26.64 57.856 26.8C57.3867 27.2267 56.832 27.5573 56.192 27.792C55.5627 28.016 54.8907 28.128 54.176 28.128ZM63.8841 20.048C64.3321 20.016 64.5561 20.1973 64.5561 20.592C64.5561 20.7627 64.5081 20.9013 64.4121 21.008C64.3161 21.104 64.1508 21.1627 63.9161 21.184L63.4361 21.232C62.7215 21.296 62.1881 21.552 61.8361 22C61.4948 22.4373 61.3241 22.9547 61.3241 23.552V27.44C61.3241 27.6533 61.2655 27.8133 61.1481 27.92C61.0308 28.0267 60.8761 28.08 60.6841 28.08C60.4921 28.08 60.3321 28.0267 60.2041 27.92C60.0868 27.8027 60.0281 27.6427 60.0281 27.44V20.688C60.0281 20.4853 60.0921 20.3307 60.2201 20.224C60.3481 20.1067 60.5028 20.048 60.6841 20.048C60.8548 20.048 60.9988 20.1067 61.1161 20.224C61.2335 20.3307 61.2921 20.48 61.2921 20.672V21.568C61.5161 21.0987 61.8308 20.7413 62.2361 20.496C62.6521 20.2507 63.1268 20.1067 63.6601 20.064L63.8841 20.048ZM71.5445 26.192C71.6618 26.192 71.7632 26.24 71.8485 26.336C71.9338 26.432 71.9765 26.5547 71.9765 26.704C71.9765 26.9707 71.7898 27.216 71.4165 27.44C71.0325 27.664 70.6272 27.8347 70.2005 27.952C69.7738 28.0587 69.3578 28.112 68.9525 28.112C67.7472 28.112 66.7925 27.7547 66.0885 27.04C65.3952 26.3253 65.0485 25.3387 65.0485 24.08C65.0485 23.28 65.2032 22.576 65.5125 21.968C65.8218 21.3493 66.2538 20.8693 66.8085 20.528C67.3738 20.1867 68.0138 20.016 68.7285 20.016C69.7418 20.016 70.5472 20.3467 71.1445 21.008C71.7418 21.6693 72.0405 22.5653 72.0405 23.696C72.0405 23.9093 71.9978 24.064 71.9125 24.16C71.8272 24.256 71.6885 24.304 71.4965 24.304H66.3445C66.4405 26.1387 67.3098 27.056 68.9525 27.056C69.3685 27.056 69.7258 27.0027 70.0245 26.896C70.3232 26.7787 70.6432 26.624 70.9845 26.432C71.2618 26.272 71.4485 26.192 71.5445 26.192ZM68.7445 21.024C68.0618 21.024 67.5125 21.2373 67.0965 21.664C66.6912 22.0907 66.4512 22.6933 66.3765 23.472H70.9045C70.8832 22.6827 70.6858 22.08 70.3125 21.664C69.9392 21.2373 69.4165 21.024 68.7445 21.024ZM77.134 20.016C79.086 20.016 80.062 21.04 80.062 23.088V27.44C80.062 27.632 80.0033 27.7867 79.886 27.904C79.7793 28.0213 79.63 28.08 79.438 28.08C79.246 28.08 79.0913 28.0213 78.974 27.904C78.8567 27.7867 78.798 27.632 78.798 27.44V26.672C78.5953 27.1307 78.286 27.488 77.87 27.744C77.454 27.9893 76.974 28.112 76.43 28.112C75.9287 28.112 75.4647 28.0107 75.038 27.808C74.622 27.6053 74.2913 27.3227 74.046 26.96C73.8007 26.5973 73.678 26.1973 73.678 25.76C73.678 25.1733 73.8273 24.72 74.126 24.4C74.4247 24.0693 74.9153 23.8347 75.598 23.696C76.2807 23.5467 77.23 23.472 78.446 23.472H78.798V22.944C78.798 22.304 78.6647 21.8347 78.398 21.536C78.142 21.2373 77.7207 21.088 77.134 21.088C76.4087 21.088 75.6727 21.2853 74.926 21.68C74.638 21.8613 74.4353 21.952 74.318 21.952C74.19 21.952 74.0833 21.904 73.998 21.808C73.9127 21.712 73.87 21.5893 73.87 21.44C73.87 21.2907 73.9127 21.1627 73.998 21.056C74.094 20.9387 74.2433 20.8213 74.446 20.704C74.8193 20.4907 75.2407 20.3253 75.71 20.208C76.19 20.08 76.6647 20.016 77.134 20.016ZM76.606 27.088C77.246 27.088 77.7687 26.8747 78.174 26.448C78.59 26.0107 78.798 25.4507 78.798 24.768V24.304H78.51C77.5713 24.304 76.8567 24.3467 76.366 24.432C75.8753 24.5067 75.5233 24.64 75.31 24.832C75.1073 25.0133 75.006 25.2853 75.006 25.648C75.006 26.064 75.1553 26.4107 75.454 26.688C75.7633 26.9547 76.1473 27.088 76.606 27.088ZM86.0344 27.056C86.4077 27.088 86.5944 27.2587 86.5944 27.568C86.5944 27.7493 86.525 27.888 86.3864 27.984C86.2584 28.0693 86.061 28.1013 85.7944 28.08L85.3624 28.048C84.509 27.984 83.8797 27.728 83.4744 27.28C83.069 26.832 82.8664 26.1547 82.8664 25.248V21.232H81.7944C81.613 21.232 81.469 21.1893 81.3624 21.104C81.2664 21.008 81.2184 20.8853 81.2184 20.736C81.2184 20.576 81.2664 20.448 81.3624 20.352C81.469 20.256 81.613 20.208 81.7944 20.208H82.8664V18.4C82.8664 18.1973 82.925 18.0427 83.0424 17.936C83.1597 17.8187 83.3197 17.76 83.5224 17.76C83.7144 17.76 83.869 17.8187 83.9864 17.936C84.1037 18.0427 84.1624 18.1973 84.1624 18.4V20.208H85.9384C86.109 20.208 86.2424 20.256 86.3384 20.352C86.445 20.448 86.4984 20.576 86.4984 20.736C86.4984 20.8853 86.445 21.008 86.3384 21.104C86.2424 21.1893 86.109 21.232 85.9384 21.232H84.1624V25.312C84.1624 25.8987 84.2797 26.3253 84.5144 26.592C84.7597 26.848 85.1224 26.992 85.6024 27.024L86.0344 27.056ZM93.9039 26.192C94.0212 26.192 94.1225 26.24 94.2079 26.336C94.2932 26.432 94.3359 26.5547 94.3359 26.704C94.3359 26.9707 94.1492 27.216 93.7759 27.44C93.3919 27.664 92.9865 27.8347 92.5599 27.952C92.1332 28.0587 91.7172 28.112 91.3119 28.112C90.1065 28.112 89.1519 27.7547 88.4479 27.04C87.7545 26.3253 87.4079 25.3387 87.4079 24.08C87.4079 23.28 87.5625 22.576 87.8719 21.968C88.1812 21.3493 88.6132 20.8693 89.1679 20.528C89.7332 20.1867 90.3732 20.016 91.0879 20.016C92.1012 20.016 92.9065 20.3467 93.5039 21.008C94.1012 21.6693 94.3999 22.5653 94.3999 23.696C94.3999 23.9093 94.3572 24.064 94.2719 24.16C94.1865 24.256 94.0479 24.304 93.8559 24.304H88.7039C88.7999 26.1387 89.6692 27.056 91.3119 27.056C91.7279 27.056 92.0852 27.0027 92.3839 26.896C92.6825 26.7787 93.0025 26.624 93.3439 26.432C93.6212 26.272 93.8079 26.192 93.9039 26.192ZM91.1039 21.024C90.4212 21.024 89.8719 21.2373 89.4559 21.664C89.0505 22.0907 88.8105 22.6933 88.7359 23.472H93.2639C93.2425 22.6827 93.0452 22.08 92.6719 21.664C92.2985 21.2373 91.7759 21.024 91.1039 21.024ZM109.234 27.184C109.309 27.3013 109.346 27.424 109.346 27.552C109.346 27.712 109.282 27.8453 109.154 27.952C109.037 28.048 108.898 28.096 108.738 28.096C108.493 28.096 108.301 27.9893 108.162 27.776L106.018 24.384C105.741 23.9467 105.453 23.648 105.154 23.488C104.856 23.3173 104.45 23.232 103.938 23.232H101.922V27.408C101.922 27.6107 101.864 27.776 101.746 27.904C101.629 28.0213 101.474 28.08 101.282 28.08C101.08 28.08 100.92 28.0213 100.802 27.904C100.685 27.776 100.626 27.6107 100.626 27.408V17.36C100.626 17.168 100.685 17.0133 100.802 16.896C100.93 16.7787 101.096 16.72 101.298 16.72H105.266C106.493 16.72 107.426 16.992 108.066 17.536C108.717 18.08 109.042 18.88 109.042 19.936C109.042 20.832 108.781 21.552 108.258 22.096C107.746 22.64 107.01 22.9707 106.05 23.088C106.317 23.1733 106.557 23.312 106.77 23.504C106.984 23.696 107.197 23.9627 107.41 24.304L109.234 27.184ZM105.154 22.144C106.029 22.144 106.68 21.9627 107.106 21.6C107.544 21.2373 107.762 20.688 107.762 19.952C107.762 19.2267 107.549 18.688 107.122 18.336C106.696 17.984 106.04 17.808 105.154 17.808H101.922V22.144H105.154ZM114.635 28.112C113.899 28.112 113.248 27.9467 112.683 27.616C112.128 27.2853 111.696 26.816 111.387 26.208C111.088 25.5893 110.939 24.8747 110.939 24.064C110.939 23.2533 111.088 22.544 111.387 21.936C111.696 21.3173 112.128 20.8427 112.683 20.512C113.248 20.1813 113.899 20.016 114.635 20.016C115.371 20.016 116.022 20.1813 116.587 20.512C117.152 20.8427 117.584 21.3173 117.883 21.936C118.192 22.544 118.347 23.2533 118.347 24.064C118.347 24.8747 118.192 25.5893 117.883 26.208C117.584 26.816 117.152 27.2853 116.587 27.616C116.022 27.9467 115.371 28.112 114.635 28.112ZM114.635 27.04C115.403 27.04 115.99 26.7893 116.395 26.288C116.811 25.776 117.019 25.0347 117.019 24.064C117.019 23.1147 116.811 22.384 116.395 21.872C115.979 21.3493 115.392 21.088 114.635 21.088C113.878 21.088 113.291 21.3493 112.875 21.872C112.459 22.384 112.251 23.1147 112.251 24.064C112.251 25.024 112.454 25.76 112.859 26.272C113.275 26.784 113.867 27.04 114.635 27.04ZM123.51 28.112C122.774 28.112 122.123 27.9467 121.558 27.616C121.003 27.2853 120.571 26.816 120.262 26.208C119.963 25.5893 119.814 24.8747 119.814 24.064C119.814 23.2533 119.963 22.544 120.262 21.936C120.571 21.3173 121.003 20.8427 121.558 20.512C122.123 20.1813 122.774 20.016 123.51 20.016C124.246 20.016 124.897 20.1813 125.462 20.512C126.027 20.8427 126.459 21.3173 126.758 21.936C127.067 22.544 127.222 23.2533 127.222 24.064C127.222 24.8747 127.067 25.5893 126.758 26.208C126.459 26.816 126.027 27.2853 125.462 27.616C124.897 27.9467 124.246 28.112 123.51 28.112ZM123.51 27.04C124.278 27.04 124.865 26.7893 125.27 26.288C125.686 25.776 125.894 25.0347 125.894 24.064C125.894 23.1147 125.686 22.384 125.27 21.872C124.854 21.3493 124.267 21.088 123.51 21.088C122.753 21.088 122.166 21.3493 121.75 21.872C121.334 22.384 121.126 23.1147 121.126 24.064C121.126 25.024 121.329 25.76 121.734 26.272C122.15 26.784 122.742 27.04 123.51 27.04ZM137.825 20.016C139.553 20.016 140.417 21.0453 140.417 23.104V27.44C140.417 27.6427 140.358 27.8027 140.241 27.92C140.124 28.0267 139.969 28.08 139.777 28.08C139.585 28.08 139.425 28.0267 139.297 27.92C139.18 27.8027 139.121 27.6427 139.121 27.44V23.136C139.121 22.4213 138.993 21.904 138.737 21.584C138.481 21.264 138.081 21.104 137.537 21.104C136.886 21.104 136.374 21.3227 136.001 21.76C135.628 22.1973 135.441 22.7893 135.441 23.536V27.44C135.441 27.6427 135.377 27.8027 135.249 27.92C135.132 28.0267 134.977 28.08 134.785 28.08C134.593 28.08 134.438 28.0267 134.321 27.92C134.204 27.8027 134.145 27.6427 134.145 27.44V23.136C134.145 22.4213 134.017 21.904 133.761 21.584C133.505 21.264 133.1 21.104 132.545 21.104C131.905 21.104 131.393 21.3227 131.009 21.76C130.636 22.1973 130.449 22.7893 130.449 23.536V27.44C130.449 27.6427 130.39 27.8027 130.273 27.92C130.156 28.0267 130.001 28.08 129.809 28.08C129.617 28.08 129.457 28.0267 129.329 27.92C129.212 27.8027 129.153 27.6427 129.153 27.44V20.688C129.153 20.496 129.212 20.3413 129.329 20.224C129.457 20.1067 129.617 20.048 129.809 20.048C129.99 20.048 130.14 20.1067 130.257 20.224C130.374 20.3307 130.433 20.48 130.433 20.672V21.44C130.668 20.9813 130.993 20.6293 131.409 20.384C131.825 20.1387 132.305 20.016 132.849 20.016C134.065 20.016 134.86 20.528 135.233 21.552C135.457 21.0827 135.798 20.7093 136.257 20.432C136.716 20.1547 137.238 20.016 137.825 20.016Z" fill="black"/>
<defs>
<linearGradient id="paint0_linear_246:507" x1="0" y1="0" x2="156.452" y2="44.4087" gradientUnits="userSpaceOnUse">
<stop stop-color="#15E8D8"/>
<stop offset="1" stop-color="#00F0FF"/>
</linearGradient>
</defs>
</svg>
