<svg width="225" height="59" viewBox="0 0 225 59" fill="none" xmlns="http://www.w3.org/2000/svg">
<path d="M49.5845 50.0885C55.0935 44.5183 58.128 37.1595 58.128 29.3685C58.128 28.3623 57.3125 27.5468 56.3063 27.5468C55.2983 27.5468 54.4828 28.3623 54.4828 29.3685C54.4828 36.1935 51.8228 42.644 46.9928 47.5265C42.168 52.4055 35.7998 55.0918 29.0623 55.0918C22.3248 55.0918 15.9565 52.4055 11.1318 47.5265C6.3035 42.6423 3.6435 36.1935 3.6435 29.3668C3.6435 22.54 6.3035 16.0913 11.1335 11.207C15.9268 6.36125 22.2425 3.6785 28.931 3.6435C30.3888 3.661 31.57 4.87375 31.57 6.36125C31.57 7.861 30.373 9.08075 28.9013 9.08075C28.8348 9.08075 28.7683 9.08425 28.7035 9.09125C23.6705 9.24875 18.9403 11.3243 15.33 14.9765C11.5763 18.774 9.50775 23.7895 9.50775 29.1008C9.50775 34.412 11.5763 39.4293 15.33 43.225C19.0908 47.0278 24.0608 49.1225 29.3265 49.1225C34.5923 49.1225 39.5623 47.0278 43.323 43.225C47.0785 39.4293 49.1453 34.412 49.1453 29.1008C49.1453 25.5938 46.3138 22.7395 42.833 22.7395C39.3505 22.7395 36.519 25.5938 36.519 29.1008C36.519 29.1533 36.5243 29.2058 36.5278 29.2548C36.5243 29.3055 36.519 29.358 36.519 29.4088C36.519 33.4215 33.2273 36.687 29.1813 36.687C25.1353 36.687 21.8435 33.4215 21.8435 29.4088C21.8435 25.3943 25.1353 22.1305 29.1813 22.1305C30.1858 22.1305 31.003 21.315 31.003 20.3088C31.003 19.3025 30.1875 18.487 29.1813 18.487C23.1263 18.487 18.2 23.3853 18.2 29.407C18.2 35.4288 23.1263 40.327 29.1813 40.327C35.2363 40.327 40.1625 35.4288 40.1625 29.407C40.1625 29.3545 40.159 29.3038 40.1538 29.253C40.159 29.2023 40.1625 29.1515 40.1625 29.1008C40.1625 27.601 41.3595 26.3813 42.8313 26.3813C44.303 26.3813 45.5 27.601 45.5 29.1008C45.5 33.4443 43.806 37.5515 40.7295 40.6613C37.66 43.7675 33.6088 45.4773 29.3248 45.4773C25.039 45.4773 20.9878 43.7675 17.9183 40.6613C14.8418 37.5515 13.1478 33.4443 13.1478 29.1008C13.1478 24.7555 14.8418 20.6483 17.9183 17.5385C20.9878 14.4323 25.039 12.7225 29.3248 12.7225C29.491 12.7225 29.652 12.698 29.8078 12.6543C32.8598 12.2098 35.21 9.55675 35.21 6.3595C35.21 2.97325 32.571 0.19775 29.2583 0.00875C29.1953 0.00349989 29.1305 0 29.064 0C29.0273 0 28.9905 0.00175 28.9538 0.00175C28.9363 0.00175 28.9188 0 28.8995 0C28.882 0 28.8645 0.0035 28.8453 0.0035C21.21 0.0595 14.0053 3.122 8.5435 8.64675C3.03275 14.217 0 21.5758 0 29.3668C0 37.1578 3.03275 44.5165 8.5435 50.0868C14.0578 55.664 21.3448 58.7335 29.064 58.7335C36.7815 58.7335 44.0703 55.664 49.5845 50.0885Z" fill="white"/>
<path d="M79.992 35.128C79.192 35.128 78.424 35.0107 77.688 34.776C76.9627 34.5307 76.3813 34.2053 75.944 33.8C75.784 33.6507 75.704 33.464 75.704 33.24C75.704 33.0907 75.7467 32.9627 75.832 32.856C75.9173 32.7387 76.0187 32.68 76.136 32.68C76.2747 32.68 76.424 32.7387 76.584 32.856C77.576 33.624 78.7067 34.008 79.976 34.008C80.8933 34.008 81.5973 33.832 82.088 33.48C82.5787 33.128 82.824 32.6267 82.824 31.976C82.824 31.6027 82.7067 31.304 82.472 31.08C82.2373 30.8453 81.928 30.6587 81.544 30.52C81.16 30.3813 80.6427 30.2373 79.992 30.088C79.1173 29.8853 78.3973 29.672 77.832 29.448C77.2773 29.224 76.824 28.904 76.472 28.488C76.1307 28.072 75.96 27.528 75.96 26.856C75.96 26.216 76.1307 25.6507 76.472 25.16C76.824 24.6587 77.3093 24.2747 77.928 24.008C78.5573 23.7307 79.272 23.592 80.072 23.592C80.8187 23.592 81.512 23.7093 82.152 23.944C82.8027 24.168 83.3467 24.4933 83.784 24.92C83.9547 25.0907 84.04 25.2773 84.04 25.48C84.04 25.6293 83.9973 25.7627 83.912 25.88C83.8267 25.9867 83.7253 26.04 83.608 26.04C83.4907 26.04 83.336 25.9813 83.144 25.864C82.6213 25.4373 82.136 25.1387 81.688 24.968C81.24 24.7973 80.7013 24.712 80.072 24.712C79.1867 24.712 78.4987 24.8987 78.008 25.272C77.5173 25.6347 77.272 26.1467 77.272 26.808C77.272 27.3733 77.4853 27.8 77.912 28.088C78.3493 28.3653 79.016 28.6107 79.912 28.824C80.8827 29.0587 81.6453 29.2773 82.2 29.48C82.7547 29.672 83.2133 29.9653 83.576 30.36C83.9493 30.7547 84.136 31.2827 84.136 31.944C84.136 32.5733 83.96 33.128 83.608 33.608C83.2667 34.088 82.7813 34.4613 82.152 34.728C81.5227 34.9947 80.8027 35.128 79.992 35.128ZM89.4246 35.08C89.222 35.08 89.0566 35.0213 88.9286 34.904C88.8113 34.776 88.7526 34.6107 88.7526 34.408V24.84H85.3126C85.1206 24.84 84.9713 24.792 84.8646 24.696C84.758 24.6 84.7046 24.4613 84.7046 24.28C84.7046 24.0987 84.758 23.96 84.8646 23.864C84.9713 23.768 85.1206 23.72 85.3126 23.72H93.5206C93.7126 23.72 93.862 23.768 93.9686 23.864C94.0753 23.96 94.1286 24.0987 94.1286 24.28C94.1286 24.4613 94.0753 24.6 93.9686 24.696C93.862 24.792 93.7126 24.84 93.5206 24.84H90.0806V34.408C90.0806 34.6107 90.022 34.776 89.9046 34.904C89.7873 35.0213 89.6273 35.08 89.4246 35.08ZM104.203 34.184C104.278 34.3013 104.315 34.424 104.315 34.552C104.315 34.712 104.251 34.8453 104.123 34.952C104.006 35.048 103.867 35.096 103.707 35.096C103.462 35.096 103.27 34.9893 103.131 34.776L100.987 31.384C100.71 30.9467 100.422 30.648 100.123 30.488C99.8245 30.3173 99.4191 30.232 98.9071 30.232H96.8911V34.408C96.8911 34.6107 96.8325 34.776 96.7151 34.904C96.5978 35.0213 96.4431 35.08 96.2511 35.08C96.0485 35.08 95.8885 35.0213 95.7711 34.904C95.6538 34.776 95.5951 34.6107 95.5951 34.408V24.36C95.5951 24.168 95.6538 24.0133 95.7711 23.896C95.8991 23.7787 96.0645 23.72 96.2671 23.72H100.235C101.462 23.72 102.395 23.992 103.035 24.536C103.686 25.08 104.011 25.88 104.011 26.936C104.011 27.832 103.75 28.552 103.227 29.096C102.715 29.64 101.979 29.9707 101.019 30.088C101.286 30.1733 101.526 30.312 101.739 30.504C101.952 30.696 102.166 30.9627 102.379 31.304L104.203 34.184ZM100.123 29.144C100.998 29.144 101.648 28.9627 102.075 28.6C102.512 28.2373 102.731 27.688 102.731 26.952C102.731 26.2267 102.518 25.688 102.091 25.336C101.664 24.984 101.008 24.808 100.123 24.808H96.8911V29.144H100.123ZM107.236 35C107.033 35 106.868 34.9413 106.74 34.824C106.623 34.7067 106.564 34.552 106.564 34.36V24.36C106.564 24.168 106.623 24.0133 106.74 23.896C106.868 23.7787 107.033 23.72 107.236 23.72H113.22C113.412 23.72 113.561 23.768 113.668 23.864C113.775 23.96 113.828 24.0933 113.828 24.264C113.828 24.4347 113.775 24.568 113.668 24.664C113.561 24.76 113.412 24.808 113.22 24.808H107.86V28.728H112.9C113.092 28.728 113.241 28.776 113.348 28.872C113.455 28.968 113.508 29.1013 113.508 29.272C113.508 29.4427 113.455 29.576 113.348 29.672C113.241 29.768 113.092 29.816 112.9 29.816H107.86V33.912H113.22C113.412 33.912 113.561 33.96 113.668 34.056C113.775 34.1413 113.828 34.2747 113.828 34.456C113.828 34.6267 113.775 34.76 113.668 34.856C113.561 34.952 113.412 35 113.22 35H107.236ZM125.37 34.248C125.412 34.3333 125.434 34.424 125.434 34.52C125.434 34.68 125.37 34.8133 125.242 34.92C125.124 35.0267 124.98 35.08 124.81 35.08C124.543 35.08 124.356 34.952 124.25 34.696L123.114 32.104H117.082L115.93 34.696C115.823 34.952 115.636 35.08 115.37 35.08C115.199 35.08 115.05 35.0267 114.922 34.92C114.794 34.8027 114.73 34.664 114.73 34.504C114.73 34.4187 114.751 34.3333 114.794 34.248L119.37 24.072C119.434 23.9227 119.53 23.8107 119.658 23.736C119.786 23.6613 119.924 23.624 120.074 23.624C120.234 23.624 120.378 23.6667 120.506 23.752C120.634 23.8267 120.73 23.9333 120.794 24.072L125.37 34.248ZM117.562 31.016H122.634L120.09 25.272L117.562 31.016ZM137.299 23.64C137.501 23.64 137.656 23.704 137.763 23.832C137.88 23.9493 137.939 24.1093 137.939 24.312V34.44C137.939 34.632 137.885 34.7867 137.779 34.904C137.672 35.0213 137.523 35.08 137.331 35.08C137.139 35.08 136.995 35.0213 136.899 34.904C136.803 34.7867 136.755 34.632 136.755 34.44V26.264L133.283 32.92C133.133 33.2293 132.915 33.384 132.627 33.384C132.349 33.384 132.131 33.2293 131.971 32.92L128.483 26.344V34.44C128.483 34.632 128.429 34.7867 128.323 34.904C128.227 35.0213 128.083 35.08 127.891 35.08C127.699 35.08 127.549 35.0213 127.443 34.904C127.336 34.7867 127.283 34.632 127.283 34.44V24.312C127.283 24.1093 127.341 23.9493 127.459 23.832C127.576 23.704 127.736 23.64 127.939 23.64C128.205 23.64 128.419 23.7947 128.579 24.104L132.643 31.896L136.659 24.104C136.744 23.9333 136.835 23.816 136.931 23.752C137.037 23.6773 137.16 23.64 137.299 23.64ZM149.645 35.128C148.578 35.128 147.655 34.8987 146.877 34.44C146.098 33.9707 145.495 33.304 145.069 32.44C144.653 31.5653 144.445 30.536 144.445 29.352C144.445 28.1787 144.653 27.16 145.069 26.296C145.495 25.4213 146.098 24.7547 146.877 24.296C147.655 23.8267 148.578 23.592 149.645 23.592C150.359 23.592 151.031 23.7093 151.661 23.944C152.301 24.168 152.855 24.4933 153.325 24.92C153.495 25.08 153.581 25.2667 153.581 25.48C153.581 25.6293 153.538 25.7627 153.453 25.88C153.367 25.9867 153.266 26.04 153.149 26.04C153.021 26.04 152.866 25.9813 152.685 25.864C152.141 25.4373 151.645 25.1387 151.197 24.968C150.759 24.7973 150.253 24.712 149.677 24.712C148.439 24.712 147.485 25.1173 146.813 25.928C146.151 26.728 145.821 27.8693 145.821 29.352C145.821 30.8453 146.151 31.9973 146.813 32.808C147.485 33.608 148.439 34.008 149.677 34.008C150.242 34.008 150.749 33.9227 151.197 33.752C151.645 33.5813 152.141 33.2827 152.685 32.856C152.866 32.7387 153.021 32.68 153.149 32.68C153.266 32.68 153.367 32.7333 153.453 32.84C153.538 32.9467 153.581 33.08 153.581 33.24C153.581 33.4533 153.495 33.64 153.325 33.8C152.855 34.2267 152.301 34.5573 151.661 34.792C151.031 35.016 150.359 35.128 149.645 35.128ZM160.237 35.128C159.192 35.128 158.28 34.8933 157.501 34.424C156.733 33.9547 156.141 33.288 155.725 32.424C155.309 31.56 155.101 30.5413 155.101 29.368C155.101 28.184 155.304 27.16 155.709 26.296C156.125 25.4213 156.717 24.7547 157.485 24.296C158.264 23.8267 159.181 23.592 160.237 23.592C161.293 23.592 162.205 23.8267 162.973 24.296C163.752 24.7547 164.344 25.4213 164.749 26.296C165.165 27.16 165.373 28.1787 165.373 29.352C165.373 30.5253 165.165 31.5493 164.749 32.424C164.333 33.288 163.736 33.9547 162.957 34.424C162.189 34.8933 161.282 35.128 160.237 35.128ZM160.237 34.008C161.432 34.008 162.36 33.608 163.021 32.808C163.693 31.9973 164.029 30.8453 164.029 29.352C164.029 27.8587 163.698 26.712 163.037 25.912C162.376 25.112 161.442 24.712 160.237 24.712C159.042 24.712 158.109 25.1173 157.437 25.928C156.776 26.728 156.445 27.8693 156.445 29.352C156.445 30.8347 156.776 31.9813 157.437 32.792C158.109 33.6027 159.042 34.008 160.237 34.008ZM176.168 23.64C176.36 23.64 176.509 23.704 176.616 23.832C176.722 23.9493 176.776 24.1093 176.776 24.312V34.408C176.776 34.6107 176.717 34.776 176.6 34.904C176.493 35.0213 176.338 35.08 176.136 35.08C175.933 35.08 175.757 34.9893 175.608 34.808L168.968 25.928V34.408C168.968 34.6107 168.909 34.776 168.792 34.904C168.685 35.0213 168.536 35.08 168.344 35.08C168.152 35.08 168.002 35.0213 167.896 34.904C167.789 34.776 167.736 34.6107 167.736 34.408V24.312C167.736 24.1093 167.789 23.9493 167.896 23.832C168.013 23.704 168.173 23.64 168.376 23.64C168.589 23.64 168.77 23.7307 168.92 23.912L175.544 32.792V24.312C175.544 24.1093 175.597 23.9493 175.704 23.832C175.821 23.704 175.976 23.64 176.168 23.64ZM187.996 23.64C188.188 23.64 188.337 23.704 188.444 23.832C188.551 23.9493 188.604 24.1093 188.604 24.312V34.408C188.604 34.6107 188.545 34.776 188.428 34.904C188.321 35.0213 188.167 35.08 187.964 35.08C187.761 35.08 187.585 34.9893 187.436 34.808L180.796 25.928V34.408C180.796 34.6107 180.737 34.776 180.62 34.904C180.513 35.0213 180.364 35.08 180.172 35.08C179.98 35.08 179.831 35.0213 179.724 34.904C179.617 34.776 179.564 34.6107 179.564 34.408V24.312C179.564 24.1093 179.617 23.9493 179.724 23.832C179.841 23.704 180.001 23.64 180.204 23.64C180.417 23.64 180.599 23.7307 180.748 23.912L187.372 32.792V24.312C187.372 24.1093 187.425 23.9493 187.532 23.832C187.649 23.704 187.804 23.64 187.996 23.64ZM192.064 35C191.861 35 191.696 34.9413 191.568 34.824C191.451 34.7067 191.392 34.552 191.392 34.36V24.36C191.392 24.168 191.451 24.0133 191.568 23.896C191.696 23.7787 191.861 23.72 192.064 23.72H198.048C198.24 23.72 198.389 23.768 198.496 23.864C198.603 23.96 198.656 24.0933 198.656 24.264C198.656 24.4347 198.603 24.568 198.496 24.664C198.389 24.76 198.24 24.808 198.048 24.808H192.688V28.728H197.728C197.92 28.728 198.069 28.776 198.176 28.872C198.283 28.968 198.336 29.1013 198.336 29.272C198.336 29.4427 198.283 29.576 198.176 29.672C198.069 29.768 197.92 29.816 197.728 29.816H192.688V33.912H198.048C198.24 33.912 198.389 33.96 198.496 34.056C198.603 34.1413 198.656 34.2747 198.656 34.456C198.656 34.6267 198.603 34.76 198.496 34.856C198.389 34.952 198.24 35 198.048 35H192.064ZM205.426 35.128C204.359 35.128 203.437 34.8987 202.658 34.44C201.879 33.9707 201.277 33.304 200.85 32.44C200.434 31.5653 200.226 30.536 200.226 29.352C200.226 28.1787 200.434 27.16 200.85 26.296C201.277 25.4213 201.879 24.7547 202.658 24.296C203.437 23.8267 204.359 23.592 205.426 23.592C206.141 23.592 206.813 23.7093 207.442 23.944C208.082 24.168 208.637 24.4933 209.106 24.92C209.277 25.08 209.362 25.2667 209.362 25.48C209.362 25.6293 209.319 25.7627 209.234 25.88C209.149 25.9867 209.047 26.04 208.93 26.04C208.802 26.04 208.647 25.9813 208.466 25.864C207.922 25.4373 207.426 25.1387 206.978 24.968C206.541 24.7973 206.034 24.712 205.458 24.712C204.221 24.712 203.266 25.1173 202.594 25.928C201.933 26.728 201.602 27.8693 201.602 29.352C201.602 30.8453 201.933 31.9973 202.594 32.808C203.266 33.608 204.221 34.008 205.458 34.008C206.023 34.008 206.53 33.9227 206.978 33.752C207.426 33.5813 207.922 33.2827 208.466 32.856C208.647 32.7387 208.802 32.68 208.93 32.68C209.047 32.68 209.149 32.7333 209.234 32.84C209.319 32.9467 209.362 33.08 209.362 33.24C209.362 33.4533 209.277 33.64 209.106 33.8C208.637 34.2267 208.082 34.5573 207.442 34.792C206.813 35.016 206.141 35.128 205.426 35.128ZM214.706 35.08C214.503 35.08 214.338 35.0213 214.21 34.904C214.093 34.776 214.034 34.6107 214.034 34.408V24.84H210.594C210.402 24.84 210.253 24.792 210.146 24.696C210.039 24.6 209.986 24.4613 209.986 24.28C209.986 24.0987 210.039 23.96 210.146 23.864C210.253 23.768 210.402 23.72 210.594 23.72H218.802C218.994 23.72 219.143 23.768 219.25 23.864C219.357 23.96 219.41 24.0987 219.41 24.28C219.41 24.4613 219.357 24.6 219.25 24.696C219.143 24.792 218.994 24.84 218.802 24.84H215.362V34.408C215.362 34.6107 215.303 34.776 215.186 34.904C215.069 35.0213 214.909 35.08 214.706 35.08Z" fill="white"/>
</svg>
