<svg width="160" height="46" viewBox="0 0 160 46" fill="none" xmlns="http://www.w3.org/2000/svg">
<path d="M79.3939 32.124C81.2818 31.9612 83.7273 31.6293 85.6004 31.6928C86.0066 31.3461 86.601 31.3271 87.1991 31.2468L87.2631 31.6949L87.7604 31.5427C87.9634 31.678 87.3764 31.6336 87.7357 31.8027L87.924 31.5194C87.9634 31.678 89.2028 31.6103 88.3659 31.9443C89.0132 31.9337 89.6569 31.9316 90.3018 31.9506C90.7289 31.9718 90.5529 31.5786 91.0243 31.6991C91.1202 31.8344 90.8544 31.7858 90.8926 31.9485C92.3116 32.31 92.5368 31.1051 93.8611 31.3355L93.7479 31.3947C93.9755 31.2806 94.4026 31.3059 94.4088 31.2404C94.2426 30.7796 94.1688 31.4814 93.7675 31.2045C93.8057 30.8219 94.2721 31.0079 94.2488 30.7141C94.5577 30.8599 94.7411 30.6465 95.013 30.6274C95.4721 30.8769 96.1342 30.7183 96.4788 31.029C96.7065 30.9107 96.9625 30.5387 97.4474 30.5323C97.792 30.8388 97.3637 30.8177 97.8363 30.9382L97.9139 30.7183C98.3003 30.7585 98.2412 30.8219 98.2252 30.9255C98.64 30.9487 98.5748 30.6169 99.0929 30.7902L98.8 30.991C99.1864 30.9255 99.3427 30.9741 99.8793 31.0185C99.8658 31.1474 99.6492 31.1263 99.4917 31.0798C99.7797 31.4264 99.9926 30.9635 100.15 31.0079C100.107 30.9086 99.7354 30.8452 99.9212 30.6359C100.185 30.6909 100.492 30.3632 100.677 30.6359L100.384 30.8346C100.94 30.6909 100.685 30.5725 101.319 30.6909C101.286 30.7035 101.302 30.7627 101.287 30.8071C101.695 30.5429 102.218 30.8282 102.812 30.8811L102.699 30.936C102.94 30.8705 103.076 30.6803 103.205 30.7014C102.868 30.5556 102.962 30.4964 102.934 30.2787C103.377 30.6739 103.628 29.8898 104.358 30.1455C104.344 30.2723 104.165 30.4182 103.965 30.2723C103.708 30.6359 103.67 30.953 103.221 31.1094C103.5 31.0333 103.828 30.9973 103.756 31.1538L103.85 30.8071C104.017 30.8071 104.151 30.8346 104.277 30.843C104.354 30.6253 103.943 30.4626 104.337 30.3336C104.78 30.2449 104.563 30.7078 104.636 30.5513C105.244 30.4457 104.893 30.1899 105.474 30.3336C105.416 30.3632 105.301 30.4182 105.25 30.3801C105.665 30.5429 106.28 30.3696 106.394 30.8008C106.33 30.8917 106.316 31.0142 106.159 30.9741L106.165 30.9086C105.699 31.1918 106.55 30.8452 106.4 31.2151C106.371 30.9868 106.958 31.0713 107.222 31.1263L107.142 30.8642C108.042 30.1371 107.084 31.3715 107.958 31.3165C108.514 31.1707 107.751 31.2362 108.093 31.0713C108.467 31.139 108.6 31.3841 109.149 31.3186C109.299 31.4328 109.605 31.5955 109.624 31.8893C109.959 31.7984 110.627 32.1007 110.823 31.8365C110.263 31.5427 110.251 32.0901 109.598 31.661L109.789 31.3947C110.248 31.4476 110.841 31.3546 111.154 31.4814C111.093 31.4222 111.064 31.3461 111.106 31.2911C111.764 31.2404 111.96 30.9741 112.595 31.1115C112.67 31.3736 112.3 31.3017 112.028 31.3017C112.434 31.5406 112.457 31.3546 113.092 31.4877C113.118 31.716 112.663 31.4391 112.583 31.6547L113.289 31.6399C113.287 31.6547 113.289 31.6716 113.289 31.6885C113.401 31.3186 113.826 31.7646 114.259 31.6885C115.281 31.7752 115.452 31.2806 116.027 31.029C116.177 31.1432 116.219 31.2425 116.151 31.3292C115.905 31.1432 115.947 31.2785 115.855 31.3672C116.203 31.3609 116.6 31.8027 116.402 31.9379C116.953 31.8745 116.21 31.7223 116.55 31.6336L117.298 31.7202C117.217 31.5194 116.953 31.4581 117.346 31.3398C117.677 31.3123 117.833 31.3778 118.259 31.437C118.194 31.5258 118.386 31.7477 118.065 31.6949C118.268 31.7921 118.591 31.8407 118.723 31.6674C118.259 31.437 119.495 31.5892 119.157 31.251L119.619 31.4772C119.513 31.4602 119.495 31.5892 119.34 31.5342C119.463 31.8407 119.724 31.4919 119.89 31.4856C120.053 31.5617 120.481 31.6378 120.51 31.7519C120.661 31.6885 121.021 31.7963 121.082 31.9506C121.306 31.9168 121.109 31.7604 121.175 31.6758L121.923 31.7858C121.957 31.9549 122.003 32.4114 121.887 32.46C122.176 32.3417 122.007 31.9887 122.434 32.0542C122.176 32.3417 122.99 32.3628 122.62 32.6947C122.855 32.9525 123.555 33.0265 123.943 32.9885C124.19 32.7623 123.531 32.7982 123.567 32.5446C124.65 32.5763 124.746 31.883 125.536 32.0965L125.333 31.9992C125.834 31.9126 125.778 31.9379 126.075 31.7583C125.925 32.0627 126.602 32.6566 127.418 32.7116C127.493 32.5636 126.978 32.3459 127.119 32.1113L127.662 32.1409C127.699 32.1768 127.637 32.217 127.567 32.2487C128.057 32.2064 128.449 32.794 128.605 32.441L129.076 32.9779L128.89 32.7496C128.964 32.6038 129.509 32.6355 129.625 32.5932C130.187 32.5002 130.38 32.6672 130.676 32.9124C130.585 32.7665 130.358 32.4347 130.798 32.4516C130.768 32.9631 131.702 32.7729 131.675 33.0371C131.854 33.0561 132.156 33.2632 132.188 33.054L132.143 33.3668C132.207 32.9293 132.847 33.0434 133.342 33.0371C133.2 33.6226 133.884 33.0709 134.074 33.6501C134.188 33.2527 134.954 33.6162 135.06 33.2823C135.439 33.3161 135.381 33.6923 135.471 33.8382L135.654 33.7135C135.836 33.927 136.544 34.0665 136.958 34.2799L137.369 33.9904L137.506 34.1806C137.574 34.096 137.903 34.1045 137.707 33.9312L137.919 33.9904C137.959 33.5993 138.223 33.9333 138.657 33.8445C138.751 33.9248 138.721 34.0136 138.625 34.0517C138.837 34.0897 138.733 34.2799 138.843 34.4321C138.698 34.3032 139.645 33.8593 139.084 33.5782C139.055 33.4091 139.393 33.3499 139.599 33.4619L139.704 33.8382L139.976 33.5084C140.305 33.5127 140.431 33.7642 140.693 33.8551C140.421 33.8276 140.052 34.4321 140.751 34.5463C140.381 34.5251 140.189 34.69 139.996 34.7323C140.138 34.7703 140.209 34.8189 139.976 34.9289C140.527 34.9162 140.17 34.7428 140.712 34.7936C140.662 35.1085 140.808 35.2375 141.271 35.4298L140.934 35.1339C140.951 35.0979 140.978 35.0747 141.005 35.0599C140.874 35.0007 140.84 34.9458 140.818 34.8189C140.924 34.8401 141.467 34.5357 141.547 34.7428C141.034 34.151 142.517 34.5315 142.187 34.17C142.255 34.0897 142.632 34.1383 142.662 34.3032C142.195 34.4638 142.979 34.7259 142.891 34.9352C143.064 34.8739 142.552 34.635 142.785 34.5568C143.057 34.5843 143.24 34.8147 143.384 34.9436L143.269 34.9817L143.675 35.1952C143.754 35.0493 143.291 34.857 143.677 34.8422C143.773 34.9267 144.162 34.9119 144.143 35.0367C143.947 35.2227 144.06 35.5376 143.731 35.5313C144.002 35.5587 144.866 35.675 144.538 35.3157L144.859 35.3854C144.666 35.2121 144.114 34.8697 144.763 34.9436L144.755 35.0049L145.219 34.8464L145.405 35.0472C145.405 34.9648 145.482 34.9014 145.646 34.9352C145.685 35.0388 145.838 35.1127 145.819 35.2375C146.301 35.322 146.273 35.1529 146.343 35.0747C146.614 35.1085 146.71 35.1952 146.572 35.3579C146.94 35.4742 147.589 35.5714 147.83 35.7934C148.334 35.7553 147.731 35.7067 148.035 35.5503C148.427 36.1971 149.657 36.1104 150.47 36.2119C150.284 35.6792 150.695 36.2013 150.875 35.7934C150.689 35.9075 151.614 36.3281 150.897 36.3155L151.331 36.3556C151.607 36.6832 150.605 36.4042 151.024 36.8629C151.508 36.9496 151.864 36.4867 152.42 36.7847C152.205 37.0891 152.867 36.7636 152.699 37.1123C152.571 37.2096 152.414 37.1398 152.251 37.1335L152.347 37.2201C153.4 37.5414 152.683 36.8819 153.255 36.7636C153.905 36.8523 153.746 37.1398 153.772 37.3089C153.865 37.3956 154.194 37.4125 154.372 37.3575C153.962 37.4865 153.66 36.9918 153.857 36.8122C154.113 37.2645 154.813 37.0468 155 36.9284C154.109 36.3218 154.364 36.7741 153.528 36.1485C153.4 36.2457 153.394 36.6008 152.886 36.345C153.225 36.2415 152.877 36.1485 152.788 36.0681C152.873 36.2943 152.42 36.0787 152.257 36.1273C152.124 35.935 152.603 35.7278 152.082 35.5376L151.948 35.9899C151.746 35.8758 152.06 35.6623 151.613 35.6813C151.868 35.4848 151.569 35.2818 152.169 35.3326C151.489 34.7767 151.064 35.3199 150.502 35.3791C150.56 35.3579 150.569 35.2945 150.627 35.2776C150.502 35.3791 150.288 35.322 150.123 35.3199C149.767 35.1339 150.425 35.1635 150.339 35.0113L149.748 34.9014C149.739 34.8845 149.737 34.8739 149.737 34.8633C149.577 34.8971 149.427 34.9077 149.382 34.7809C149.568 34.6625 149.648 34.5209 149.774 34.4216L149.131 34.6224C149.211 34.4765 148.64 34.2419 149.086 34.2208L148.167 34.0939L148.11 33.7579C147.888 33.7684 147.878 33.8297 148.136 33.9248C147.827 33.7853 146.71 34.1891 146.918 33.5951C146.179 33.7092 145.928 33.5338 145.045 33.5465C145.735 33.371 144.298 33.0371 145.019 33.0265C144.611 32.8109 144.502 33.1428 144.171 33.1364C143.871 32.9462 144.028 32.6566 144.37 32.5974L143.969 32.6735L143.98 32.6122L143.629 32.7327C143.28 32.4981 143.574 32.3966 143.202 32.2867L143.105 32.5551L142.864 32.3459C142.949 32.4896 142.726 32.5108 142.454 32.4833L142.464 32.422L142.133 32.4135C142.469 32.2994 141.837 32.2994 142 32.124C141.718 32.0627 141.712 32.0648 141.201 32.0246L141.279 32.2339C140.609 32.2867 141.269 31.9401 140.735 31.828L140.754 32.0584C140.006 31.5427 139.434 32.0352 138.879 31.6928C139.209 31.6991 139.142 31.4222 139.13 31.4877C138.635 31.4814 137.839 31.2785 137.317 31.4581C137.148 31.0988 137.109 30.9952 136.594 30.7564C136.213 30.712 136.158 30.7416 136.021 30.9086C135.66 30.7289 134.96 30.8156 134.954 30.5767C134.858 30.75 134.625 30.49 134.414 30.6169L134.375 30.5133L134.395 30.7416C133.769 30.1476 133.278 30.8642 132.641 30.3315L132.759 30.2892L132.476 30.3336C132.438 30.2301 132.554 30.1857 132.571 30.061L131.285 29.8306L131.53 30.0335C131.259 30.0208 131.065 30.2068 130.762 30.0271C131.295 29.765 130.335 29.9468 130.264 29.6784L130.544 29.6298C130.165 29.5959 130.165 29.5959 130.185 29.8263C129.693 29.8306 129.87 29.3508 129.406 29.522L129.727 29.5811C129.817 29.727 129.577 29.875 129.361 29.8369C129.311 29.7967 129.163 29.6742 129.329 29.672C128.941 29.6995 128.366 29.4987 128.192 29.5642C127.987 29.4649 128.062 29.3148 128.177 29.2704C127.342 29.3465 127.807 29.1669 126.969 29.2493L126.989 29.1246L126.698 29.243L126.304 28.928L126.442 29.1077C126.171 29.1013 125.998 29.1711 125.682 29.0591L125.818 28.8878C125.048 28.9048 124.944 28.4693 124.206 28.649C124.158 28.6067 124.274 28.5623 124.331 28.5391C123.645 28.7589 123.837 28.1438 123.143 28.4271C123.186 28.37 123.114 28.2791 123.143 28.2305L122.829 28.3171L122.863 28.0656L122.595 28.4101L122.415 28.1269L122.29 28.2347C121.978 27.7084 121.498 28.0233 121.059 27.6027L121.125 27.9346C119.96 28.4799 118.531 27.2434 117.143 27.4294L117.175 27.1779L116.595 27.4294C116.296 27.2011 116.787 27.2265 116.695 27.087C116.081 27.1779 116.43 27.4442 115.72 27.4569C115.362 27.2561 115.852 27.2814 116.025 27.2053C115.358 27.273 114.375 27.3322 113.908 27.1504C113.896 27.1842 113.867 27.2265 113.89 27.2434C113.444 27.3216 112.865 27.1567 112.376 27.1314C112.391 27.0151 112.513 27.0088 112.635 26.994C112.46 26.9623 112.222 26.8629 112.068 26.9707L112.258 26.7657C111.885 26.6875 111.159 26.8291 111.083 26.5628C111.125 26.6663 111.101 26.8566 110.777 26.8185C110.61 26.4106 109.894 26.9073 109.381 26.6558C109.445 26.5649 109.826 26.5797 109.718 26.5649C109.461 26.4423 109.223 26.6029 108.992 26.7065L109.066 26.5543C108.661 26.5924 108.256 26.6283 107.851 26.6832C107.678 26.2859 106.707 26.6832 106.797 26.4042C106.364 26.3662 107.155 26.5924 106.608 26.6114C106.465 26.4423 106.113 26.6663 106.14 26.4106L106.2 26.3852H105.818L106.063 26.1485C105.733 26.1823 105.488 26.4211 105.466 26.6114C105.159 26.455 104.714 26.548 104.576 26.3133L104.691 26.2584C103.816 26.3133 103.255 25.4953 102.559 25.8843C102.509 25.8462 102.514 25.7849 102.623 25.7913L102.082 25.7469L102.214 25.5672L101.316 25.8082L101.329 25.6856C100.74 25.601 99.8129 25.62 99.0535 25.62L99.1668 25.563C98.3348 25.7257 98.3668 25.4214 97.7588 25.5461C97.7797 25.5122 97.8006 25.5017 97.8216 25.4953L97.2751 25.4869L97.397 25.3664C96.9896 25.6327 96.2438 24.9838 96.4911 25.2227C96.2622 25.3368 95.8672 25.4784 95.797 25.6327C95.2001 25.6327 95.653 25.4636 95.2838 25.3495C94.853 25.3284 94.7755 25.5461 94.1921 25.4214L94.2045 25.2903C93.9312 25.3114 93.7614 25.3981 93.3811 25.4087L93.4943 25.3495C92.8716 25.6095 92.7227 24.9584 92.2316 25.508C91.9719 25.3981 91.4772 25.47 91.5005 25.2142C90.7264 25.3664 90.1258 25.4256 89.3578 25.5186C89.236 25.1001 89.1942 25.5503 88.7277 25.3157L88.7634 25.5397C87.6767 25.582 86.4287 25.0388 85.2324 25.1423L85.198 24.9183L84.958 25.1698C83.6682 25.0768 81.9993 25.0071 80.9704 25.0176C80.6344 25.1466 80.1261 25.4044 79.5908 25.3558L79.6474 25.322C78.717 25.4911 77.7336 25.6285 76.7183 25.5439C76.7798 25.4467 76.6776 25.3833 76.7896 25.3178C76.5521 25.5778 76.1952 25.3558 75.9774 25.3601L76.2358 25.5165C75.9478 25.7426 75.5306 25.5566 75.3817 25.3981L74.9288 25.6602C74.898 25.637 74.85 25.6052 74.8451 25.5672L74.7651 25.6919L74.5189 25.4044C74.4057 25.47 73.8027 25.5714 73.6193 25.8652C73.5737 25.768 73.1467 25.7088 73.4741 25.6391L71.8052 25.6264L72.0673 25.7194C72.103 25.9434 71.6058 26.1062 71.3449 26.0132C71.6797 25.8187 71.3671 25.6961 71.2169 25.5355C70.9941 25.6665 71.4187 25.7257 71.3006 25.8547C71.02 26.0174 70.4194 26.121 70.2655 26.0364L70.4329 25.9329C70.0502 26.0449 69.8619 25.6665 69.4816 25.7152C69.1419 25.9202 68.8871 25.7701 68.9659 26.1548C68.4736 26.269 68.769 25.9054 68.6078 25.8779C68.3801 26.0829 67.6859 26.0132 67.5912 25.8272C67.334 26.4127 66.2546 25.7194 66.1648 26.2055L65.7525 25.9646C65.7426 26.0956 65.67 26.3852 65.3414 26.4613C65.0276 26.3472 65.0953 26.121 64.998 25.9963L64.8023 26.4867C63.0006 26.1062 60.6499 26.6135 58.6782 26.4317C57.8093 26.6241 56.714 26.9623 55.6925 27.0045L55.8033 26.9327L54.7842 26.9073L55.5288 27.0489C55.3085 27.125 55.1387 27.2349 54.9257 27.2539C53.8058 27.1842 52.3104 27.0658 50.9493 27.5013C50.0853 28.1692 50.34 27.1018 49.5081 27.6154C49.5782 27.5541 49.6028 27.4738 49.6644 27.4125C48.7586 27.719 48.265 27.8817 47.3641 28.3277C47.4454 27.7718 46.7685 28.4207 46.8374 28.1269L46.7709 28.3594C46.5617 28.2516 46.0805 28.2685 46.142 28.1037L45.7519 28.4313L45.7051 28.2093C45.1685 28.2685 44.0276 28.611 43.7249 28.1967C42.4117 28.6913 40.3182 28.9745 38.6518 29.1626C38.4291 29.3846 37.9441 29.4839 37.5651 29.5685L37.1454 29.3677C36.7651 29.5156 36.3737 29.9236 36.0045 29.8137C36.007 29.782 36.0181 29.7587 36.0427 29.7376C35.655 29.858 35.2747 29.7777 34.9215 30.0884C34.492 30.1476 34.0674 30.0758 34.183 29.8052C34.167 30.2554 33.2686 29.8961 33.2686 29.8961C33.2686 29.8961 32.9215 29.9299 32.3099 30.0335C31.6945 30.1371 30.8133 30.2871 29.7352 30.4668C28.6595 30.6549 27.3906 30.8832 26.0048 31.1326C24.6178 31.3841 23.1151 31.678 21.5767 32.0648C20.037 32.4347 18.4568 32.832 16.9122 33.2463C15.3677 33.6606 13.8588 34.0939 12.4668 34.6055C9.68292 35.5862 7.347 36.6008 6.0695 37.5583C5.90951 37.8204 5.42706 38.0931 5.63998 38.3045C5.26584 38.4884 5.05415 38.148 5 38.3869C5.53537 38.3932 4.89293 38.9956 5.42706 39.1309L5.10338 39.2725C5.05169 39.4416 5.53291 38.9745 5.47875 39.2789L5.53291 38.8477C5.80244 38.8371 5.95628 38.8836 6.06212 38.9978C6.29473 38.7716 6.40303 38.1755 7.01963 38.2601L6.85717 38.3277C7.33838 38.184 7.17716 38.5116 7.28423 38.5539L7.17716 38.5771L7.60422 38.6744C7.283 38.6194 6.80425 39.0844 7.06762 38.9914C7.65345 38.9513 6.91009 38.9322 7.33592 38.7674C7.60422 38.6744 7.54761 38.9132 7.54761 39.04L8.02636 38.8984C8.02882 39.0929 7.7076 38.9703 7.92175 39.1161L8.51004 38.7526C8.66511 39.2028 9.14879 38.3467 9.46755 38.7251C9.04048 38.9534 9.51924 38.8752 9.46508 39.0506L10.5309 38.7357C10.6392 38.7779 10.2638 38.9597 10.4238 38.8921C10.6367 38.9703 10.7426 38.687 10.8521 38.6638C10.9555 38.7674 11.6484 38.4418 11.6484 38.7716C12.3905 38.7885 11.9179 38.2833 12.6084 38.2875C12.7142 38.4566 12.0755 38.4736 12.393 38.594L13.0871 38.3362C13.0305 38.4461 12.9776 38.6849 12.7117 38.7145C14.6255 38.4461 15.7344 39.2514 17.4451 38.5814C17.7085 38.7526 17.2814 38.7779 17.119 38.9703C18.3509 38.37 18.9245 39.0612 19.9903 38.7843L19.994 38.5877C21.5311 38.8435 23.2911 38.0254 24.9969 37.9409L24.7852 37.8479C25.0043 37.6196 25.3772 37.5245 25.6492 37.385C25.6972 37.4717 25.4781 37.831 25.9605 37.6513C25.8547 37.6069 25.643 37.5752 25.6972 37.4717C27.1814 37.6725 30.2287 36.9369 32.6225 36.6938C35.8347 35.9561 39.3546 35.7659 42.5126 35.1022C42.0302 35.1994 42.2123 34.69 42.5815 34.7386C43.619 35.3981 44.3033 34.3666 45.3482 34.7703C47.1845 34.2546 48.8619 34.7259 50.5542 33.872L50.596 34.0939C50.857 34.1616 50.921 33.9967 51.188 33.9333L51.1843 34.0009C51.8255 33.9904 52.5874 33.6796 52.9566 33.7473L52.9701 33.4915C53.3492 33.4302 53.1756 33.6691 53.5572 33.481L53.551 33.6099L53.9941 33.3203C53.9682 33.7726 55.0648 33.2442 55.375 33.4133C55.8611 33.2823 56.7854 32.9885 57.5312 32.999C57.6789 33.2167 58.5896 33.1153 59.1742 33.1681C60.3028 32.98 61.9175 32.7454 63.3612 32.7348L63.3279 32.4495L63.7045 32.4008C63.7008 32.4664 63.7513 32.4939 63.6947 32.5277C63.9962 32.8363 64.5611 32.3628 64.87 32.5446C64.6731 32.2973 64.6042 32.5213 64.3888 32.5319C64.0774 32.4178 64.3654 32.1176 64.7863 32.2275L64.779 32.293L65.0596 32.1197C65.0977 32.3417 65.3586 32.4283 65.3968 32.6482C66.6337 32.5044 67.4706 32.0521 68.7505 32.0648C68.6238 32.3248 69.6686 31.9316 69.4188 32.3861C70.1831 32.1662 69.2859 32.0415 69.6305 31.7054C69.8446 31.6991 70.0674 31.5617 70.1092 31.7202C70.0096 31.8344 70.2889 31.9718 70.1154 32.0267L70.6286 31.9549C70.6778 31.9823 70.5671 32.0542 70.5105 32.0859C71.5504 31.7752 72.3689 32.2909 73.3018 31.9887C73.3694 31.8301 72.9288 31.9612 72.9953 31.7984C73.9331 31.437 73.8334 32.0479 74.7109 31.7858L74.5313 32.0098C74.8131 31.8471 74.9337 31.6547 75.4051 31.809C75.4888 32.0648 75.01 32.0373 74.7872 32.1683C75.1085 32.1662 75.9195 32.0627 75.6684 31.8407C76.0512 31.7371 76.1952 31.9612 76.4032 32.0246C76.4093 31.9591 76.0414 31.864 76.2654 31.7371C76.7921 31.8576 77.5995 31.8196 78.2407 31.8132C78.2345 31.8788 78.2801 31.9718 78.2247 32.0056C78.7354 31.6484 78.6874 32.2275 79.3939 32.124Z" fill="white"/>
<path d="M79.2403 42.775C80.2076 42.6186 81.4605 42.2424 82.4266 42.2952C82.6297 41.9464 82.9374 41.9169 83.2426 41.8323L83.2807 42.2804L83.5343 42.1261C83.6401 42.2572 83.3386 42.2191 83.5257 42.3798L83.618 42.0944C83.6401 42.2572 84.2764 42.1726 83.8518 42.515L84.845 42.4876C85.0665 42.4981 84.9705 42.1071 85.2142 42.2149C85.2659 42.3459 85.1281 42.3079 85.1502 42.4707C85.8825 42.7919 85.9859 41.5787 86.6689 41.7731L86.6111 41.8344C86.7268 41.7097 86.9483 41.7245 86.9495 41.659C86.8597 41.2024 86.8289 41.9084 86.6185 41.6421C86.6345 41.2574 86.8782 41.4307 86.8622 41.1411C87.0222 41.2743 87.1157 41.0545 87.2548 41.0291C87.4923 41.2658 87.832 41.0883 88.0117 41.3863C88.1274 41.2658 88.2566 40.8854 88.5064 40.8642C88.6861 41.1623 88.4646 41.1538 88.7095 41.2616L88.7476 41.0375C88.947 41.0671 88.9175 41.1306 88.9089 41.2362C89.123 41.2447 89.0873 40.9234 89.3544 41.0671L89.2042 41.2827C89.4049 41.2003 89.4836 41.2362 89.7618 41.2616C89.7556 41.3884 89.6436 41.3779 89.5624 41.3419C89.7138 41.6717 89.8196 41.2003 89.9008 41.2362C89.8775 41.1411 89.6855 41.0946 89.779 40.8748C89.9156 40.915 90.0707 40.5768 90.1679 40.841L90.019 41.0545C90.3045 40.8811 90.1728 40.7733 90.5002 40.8642C90.4817 40.8811 90.4916 40.9361 90.4842 40.9847C90.691 40.7015 90.963 40.9615 91.2694 40.9847L91.2103 41.0439C91.3334 40.9678 91.4036 40.7712 91.4688 40.7881C91.2953 40.6571 91.3433 40.5916 91.3273 40.3802C91.5574 40.7459 91.6829 39.9553 92.0595 40.1773C92.0522 40.3041 91.9623 40.4563 91.8589 40.321C91.7272 40.6994 91.7112 41.0164 91.4811 41.1918C91.6226 41.1052 91.7925 41.0545 91.7568 41.213L91.8023 40.86C91.8885 40.8537 91.9562 40.8748 92.0226 40.879C92.0595 40.6571 91.8479 40.5112 92.0497 40.3696C92.2774 40.2555 92.1703 40.7289 92.206 40.5704C92.5174 40.4351 92.3352 40.1942 92.6343 40.3147C92.6048 40.3421 92.5469 40.4055 92.5211 40.3696C92.734 40.5112 93.049 40.3104 93.1118 40.7332C93.0774 40.8304 93.0712 40.953 92.99 40.915L92.9937 40.8537C92.7561 41.158 93.1918 40.7712 93.1155 41.1517C93.0995 40.9234 93.4023 40.9784 93.5389 41.0228L93.497 40.7649C93.9549 39.9934 93.4687 41.2722 93.9179 41.1792C94.2035 41.0058 93.8121 41.1052 93.9869 40.9234C94.1789 40.972 94.249 41.2088 94.5296 41.1052C94.6084 41.2088 94.7671 41.3546 94.777 41.6421C94.9493 41.53 95.2964 41.79 95.396 41.511C95.1044 41.2574 95.1007 41.8048 94.7635 41.4159L94.8619 41.1369C95.0982 41.1623 95.4022 41.0291 95.5634 41.1369C95.5314 41.0819 95.5179 41.0058 95.54 40.9467C95.8773 40.8537 95.977 40.5746 96.3043 40.6698C96.3437 40.9297 96.1517 40.879 96.0126 40.8959C96.2219 41.1094 96.2342 40.9192 96.5615 41.0164C96.5751 41.2447 96.34 40.9953 96.2994 41.2172L96.6625 41.1538C96.6625 41.1686 96.6625 41.1855 96.6625 41.2024C96.7203 40.8262 96.9406 41.2447 97.1634 41.1369C97.6889 41.158 97.7763 40.6528 98.0717 40.359C98.1492 40.4668 98.1689 40.5641 98.1357 40.6571C98.0101 40.4838 98.0298 40.619 97.9843 40.7163C98.1615 40.6803 98.367 41.0988 98.2649 41.2468C98.5504 41.1475 98.1677 41.0439 98.3412 40.934L98.7276 40.972C98.6846 40.7733 98.5492 40.7289 98.7522 40.5873C98.9221 40.5387 99.0021 40.5852 99.2224 40.6127C99.1892 40.7057 99.2864 40.9086 99.1215 40.8875C99.2273 40.9678 99.3922 40.9847 99.4599 40.8029C99.2224 40.6127 99.8599 40.6571 99.6839 40.3485L99.9239 40.5366C99.8673 40.5281 99.8599 40.6571 99.7799 40.6148C99.8414 40.9128 99.9768 40.5472 100.063 40.5218C100.147 40.5852 100.366 40.6233 100.382 40.7374C100.461 40.6613 100.645 40.7374 100.677 40.8875C100.793 40.8367 100.692 40.6951 100.725 40.6021L101.11 40.6507C101.129 40.8156 101.152 41.2679 101.093 41.3229C101.242 41.1813 101.155 40.8494 101.374 40.879C101.242 41.1813 101.662 41.1369 101.47 41.5005C101.592 41.7372 101.952 41.752 102.152 41.6801C102.28 41.437 101.941 41.5237 101.958 41.2722C102.517 41.213 102.568 40.5091 102.974 40.6571L102.868 40.581C103.127 40.4499 103.098 40.4816 103.252 40.2724C103.173 40.5873 103.523 41.1327 103.943 41.1052C103.984 40.9509 103.716 40.7818 103.79 40.5366L104.069 40.5112C104.09 40.5387 104.058 40.5916 104.022 40.6254C104.273 40.5366 104.476 41.0777 104.556 40.712L104.798 41.2003L104.704 40.991C104.742 40.841 105.023 40.8156 105.083 40.7564C105.375 40.6085 105.474 40.7543 105.623 40.9678C105.578 40.8325 105.462 40.526 105.69 40.4985C105.671 41.0101 106.155 40.7268 106.14 40.991C106.233 40.991 106.388 41.1686 106.406 40.953L106.382 41.2722C106.416 40.8304 106.745 40.879 107.001 40.8198C106.927 41.4201 107.282 40.7945 107.377 41.3588C107.438 40.9509 107.833 41.2341 107.888 40.8854C108.084 40.8854 108.052 41.2658 108.098 41.399L108.193 41.2553C108.285 41.454 108.651 41.5174 108.864 41.6759L109.079 41.3377L109.147 41.511C109.184 41.4201 109.353 41.3821 109.253 41.2362L109.362 41.2722C109.385 40.8748 109.521 41.1792 109.746 41.0333C109.794 41.1031 109.778 41.1961 109.728 41.2447C109.837 41.2616 109.785 41.4582 109.837 41.5956C109.764 41.4857 110.257 40.9297 109.968 40.7184C109.953 40.5535 110.129 40.4563 110.235 40.5387L110.287 40.9023L110.431 40.5387C110.6 40.5091 110.664 40.7437 110.8 40.7987C110.66 40.805 110.464 41.4476 110.826 41.4793C110.634 41.5068 110.534 41.6928 110.432 41.7583C110.508 41.7795 110.544 41.8175 110.422 41.9549C110.708 41.8767 110.524 41.7478 110.804 41.7351C110.778 42.05 110.852 42.1599 111.089 42.2973L110.917 42.0458C110.928 42.0077 110.939 41.9803 110.955 41.9634C110.887 41.9169 110.869 41.8704 110.859 41.7414C110.913 41.752 111.196 41.3821 111.234 41.5829C110.973 41.0545 111.739 41.251 111.57 40.934C111.606 40.8431 111.802 40.8473 111.815 41.0101C111.574 41.2236 111.976 41.3927 111.931 41.6104C112.021 41.5279 111.757 41.3504 111.879 41.2447C112.018 41.2362 112.113 41.4476 112.186 41.5554L112.127 41.6061L112.333 41.7752C112.376 41.6209 112.139 41.4835 112.338 41.4201C112.388 41.492 112.589 41.4349 112.577 41.5575C112.476 41.7689 112.532 42.0669 112.362 42.1007C112.502 42.0944 112.949 42.1071 112.779 41.79L112.946 41.8175C112.847 41.6717 112.564 41.3969 112.901 41.3884L112.895 41.454L113.136 41.2362L113.232 41.4138C113.232 41.3335 113.271 41.2616 113.357 41.2785C113.376 41.3757 113.456 41.4265 113.443 41.5512C113.695 41.5681 113.681 41.4074 113.717 41.3166C113.858 41.3123 113.906 41.3863 113.835 41.566C114.024 41.6336 114.359 41.6378 114.483 41.8239C114.744 41.7139 114.433 41.752 114.591 41.5554C114.789 42.143 115.429 41.883 115.85 41.8725C115.757 41.3715 115.965 41.8323 116.061 41.399C115.965 41.5406 116.443 41.8281 116.069 41.9169L116.295 41.8978C116.434 42.1832 115.917 42.0458 116.131 42.4432C116.38 42.4643 116.57 41.9528 116.855 42.1705C116.742 42.5024 117.089 42.0881 116.997 42.4559C116.929 42.57 116.849 42.5214 116.765 42.5404L116.813 42.6165C117.356 42.7877 116.99 42.2297 117.291 42.031C117.625 42.031 117.539 42.3396 117.552 42.5045C117.6 42.5785 117.771 42.5467 117.863 42.4707C117.649 42.6503 117.497 42.2001 117.601 41.9972C117.729 42.4094 118.094 42.0944 118.194 41.9549C117.737 41.4751 117.864 41.8894 117.438 41.3821C117.37 41.4962 117.365 41.8513 117.101 41.6696C117.278 41.5195 117.099 41.473 117.053 41.4096C117.096 41.6209 116.864 41.4687 116.778 41.5406C116.71 41.3652 116.961 41.0946 116.691 40.9741L116.618 41.4476C116.514 41.3588 116.679 41.1031 116.446 41.1855C116.579 40.953 116.428 40.7945 116.739 40.7606C116.39 40.3041 116.165 40.9023 115.872 41.0375C115.904 41.0122 115.91 40.9509 115.939 40.9234C115.872 41.0375 115.762 41.0164 115.676 41.0333C115.493 40.898 115.836 40.8367 115.792 40.6994L115.486 40.6698C115.48 40.6528 115.48 40.6465 115.48 40.6359C115.397 40.6909 115.319 40.7226 115.297 40.6021C115.393 40.4605 115.436 40.3041 115.502 40.1899L115.168 40.4774C115.21 40.3252 114.915 40.1688 115.147 40.0864H114.671L114.645 39.763C114.529 39.8031 114.523 39.8665 114.657 39.9215C114.497 39.8285 113.914 40.3865 114.026 39.7651C113.643 39.9807 113.514 39.8517 113.055 39.9659C113.414 39.7059 112.671 39.5474 113.045 39.4523C112.834 39.2853 112.776 39.6319 112.605 39.6615C112.452 39.5093 112.534 39.2028 112.711 39.1014L112.503 39.2261L112.509 39.1648L112.326 39.3275C112.146 39.1331 112.3 38.9978 112.108 38.9323L112.056 39.2134L111.933 39.0337C111.976 39.169 111.861 39.2134 111.719 39.2197L111.725 39.1584L111.554 39.1923C111.728 39.0359 111.4 39.1119 111.485 38.9196C111.34 38.8879 111.336 38.8921 111.073 38.9154L111.112 39.1162C110.764 39.2472 111.109 38.8224 110.832 38.778L110.842 39.002C110.456 38.5814 110.157 39.1394 109.872 38.8646C110.042 38.8329 110.007 38.5666 110.004 38.63C109.746 38.685 109.333 38.5772 109.062 38.8224C108.978 38.4842 108.957 38.3848 108.693 38.2073C108.495 38.2073 108.465 38.239 108.395 38.4208C108.208 38.2791 107.845 38.4356 107.842 38.1967C107.793 38.3848 107.673 38.1481 107.563 38.2982L107.546 38.1967L107.553 38.425C107.232 37.8923 106.977 38.6596 106.647 38.1946L106.709 38.1375L106.561 38.2136C106.542 38.1143 106.602 38.0593 106.613 37.9304L105.947 37.831L106.075 38.0107C105.934 38.0213 105.834 38.2326 105.675 38.0804C105.951 37.7697 105.455 38.0487 105.418 37.7866L105.564 37.7105C105.369 37.7127 105.369 37.7127 105.379 37.9409C105.123 38.0001 105.217 37.4949 104.975 37.7211L105.143 37.7444C105.187 37.8796 105.063 38.0551 104.951 38.0382C104.928 38.0001 104.852 37.8923 104.935 37.8733C104.734 37.9409 104.438 37.7993 104.347 37.8839C104.241 37.8036 104.281 37.6471 104.341 37.5922C103.91 37.7549 104.149 37.533 103.716 37.6958L103.727 37.5689L103.577 37.7105L103.374 37.4294L103.445 37.5964C103.303 37.6133 103.214 37.6958 103.052 37.6133L103.121 37.4294C102.723 37.5097 102.671 37.0849 102.288 37.3258C102.264 37.292 102.324 37.2328 102.353 37.2054C101.999 37.4823 102.099 36.8524 101.739 37.1948C101.761 37.1335 101.724 37.0511 101.739 36.9982L101.578 37.1081L101.595 36.8566L101.457 37.2265L101.364 36.9581L101.299 37.0743C101.139 36.5734 100.889 36.9285 100.664 36.5501L100.698 36.8735C100.095 37.5097 99.3541 36.4106 98.6378 36.6917L98.6538 36.4381L98.3572 36.7298C98.2009 36.5226 98.4544 36.5142 98.4064 36.381C98.0901 36.5121 98.271 36.753 97.9043 36.8164C97.7184 36.6368 97.972 36.6283 98.0618 36.5417C97.716 36.6558 97.2101 36.7784 96.9689 36.6262C96.9628 36.66 96.9468 36.7044 96.9578 36.7213C96.7289 36.8291 96.4299 36.7023 96.1788 36.7108C96.1837 36.5945 96.2477 36.5776 96.3105 36.5522C96.2206 36.5353 96.0963 36.4487 96.0188 36.567L96.116 36.3493C95.9228 36.2965 95.5474 36.4867 95.508 36.2246C95.5302 36.3239 95.5179 36.5184 95.3517 36.5015C95.2619 36.1062 94.8951 36.6495 94.6293 36.4275C94.6613 36.3387 94.8594 36.3239 94.8041 36.3176C94.6699 36.2119 94.5481 36.3895 94.4287 36.5036L94.4668 36.3493L93.8392 36.5522C93.7506 36.1591 93.2509 36.6051 93.2952 36.3218C93.0712 36.3049 93.481 36.4952 93.1992 36.5353C93.1229 36.3726 92.9444 36.6156 92.9555 36.3599L92.9863 36.3282L92.7906 36.3451L92.9137 36.0999C92.7438 36.1527 92.6183 36.4 92.6109 36.5903C92.4484 36.4487 92.222 36.5628 92.1482 36.3345L92.2072 36.2732C91.7568 36.3704 91.4614 35.5778 91.1045 36.0027C91.0786 35.9646 91.0823 35.9033 91.1377 35.9075L90.8583 35.8906L90.9248 35.7004L90.4621 35.9857L90.4694 35.8589C90.1642 35.804 89.6855 35.8695 89.2941 35.9033L89.3519 35.842C88.9236 36.0407 88.9396 35.7236 88.6258 35.8695C88.6356 35.8378 88.6455 35.823 88.6578 35.8145L88.3772 35.823L88.4387 35.7004C88.2295 35.9794 87.8394 35.3516 87.9698 35.582C87.8517 35.7067 87.6486 35.8547 87.6141 36.0132C87.3077 36.0323 87.5391 35.8484 87.3471 35.7448C87.1231 35.7342 87.0862 35.9562 86.7846 35.8484L86.7908 35.7194C86.6492 35.7448 86.5606 35.8378 86.365 35.8589L86.4228 35.7955C86.104 36.0724 86.0203 35.4277 85.773 35.9942C85.6376 35.8906 85.3841 35.9731 85.3939 35.7173C84.9964 35.8927 84.685 35.9731 84.2899 36.083C84.2222 35.6645 84.2063 36.1147 83.9626 35.8864L83.9835 36.1062C83.4247 36.1633 82.7737 35.6349 82.1571 35.7511L82.1349 35.5228L82.0156 35.7786C81.3497 35.7004 80.4858 35.6518 79.9541 35.6687C79.783 35.7955 79.5233 36.0724 79.2464 36.0132L79.2759 35.9794C78.7972 36.1422 78.2926 36.2732 77.7658 36.1802C77.7954 36.0788 77.7425 36.0175 77.8003 35.9519C77.6797 36.2119 77.4926 35.9857 77.3806 35.99L77.5148 36.1485C77.3708 36.3726 77.1529 36.1802 77.0729 36.0217L76.8416 36.2796C76.828 36.2584 76.8022 36.2246 76.7985 36.1866L76.7579 36.3113L76.6262 36.0217C76.5708 36.0872 76.2594 36.1823 76.1696 36.474C76.1437 36.3768 75.9222 36.3155 76.092 36.2478L75.2281 36.2204L75.3659 36.3176C75.3881 36.5395 75.1345 36.7023 74.9967 36.6051C75.1678 36.4106 75.0029 36.2838 74.9241 36.1253C74.8109 36.2563 75.0299 36.3176 74.9721 36.4465C74.8293 36.6051 74.5216 36.7044 74.4392 36.6114L74.5253 36.5121C74.3284 36.6156 74.2238 36.2309 74.0281 36.269C73.857 36.4656 73.7217 36.3155 73.7697 36.6938C73.5161 36.7974 73.6638 36.4423 73.5801 36.4106C73.4657 36.6072 73.1051 36.5226 73.0534 36.3324C72.9315 36.9116 72.3605 36.1908 72.3223 36.6706L72.1057 36.4212C72.1008 36.5522 72.0688 36.8397 71.9014 36.9094C71.7365 36.7847 71.7685 36.5607 71.7143 36.436L71.622 36.92C70.683 36.4952 69.4769 36.9433 68.4517 36.6558C68.0049 36.8122 67.4437 37.0997 66.9157 37.0912L66.9711 37.0257L66.4431 36.9581L66.832 37.1293C66.72 37.199 66.6339 37.3026 66.5219 37.3089C65.9422 37.1821 65.1632 37.0194 64.4678 37.3639C64.0346 37.9769 64.1417 36.9264 63.7207 37.385C63.7564 37.3301 63.7675 37.2498 63.7995 37.1927C63.3343 37.44 63.082 37.571 62.6254 37.9579C62.6537 37.4125 62.3189 38.017 62.346 37.7275L62.3189 37.9515C62.2069 37.8353 61.9571 37.8205 61.9854 37.6577L61.7897 37.9621L61.7614 37.7423C61.4845 37.7613 60.8999 38.0318 60.7301 37.5964C60.0618 38.0255 58.9787 38.1206 58.116 38.1756C58.0052 38.3806 57.7554 38.4356 57.5622 38.4905L57.3357 38.2601C57.1425 38.3743 56.9517 38.7463 56.756 38.6089C56.7536 38.5729 56.7622 38.5539 56.7733 38.5349C56.5739 38.6216 56.3721 38.5159 56.1985 38.7949C55.9758 38.816 55.7518 38.7125 55.8059 38.4525C55.8096 38.8985 55.3309 38.4673 55.3309 38.4673C55.3309 38.4673 52.4694 38.7251 49.2831 39.4311C46.0992 40.1308 42.599 41.3483 41.3239 42.8955C41.2501 43.1344 41.0052 43.3415 41.127 43.5761C40.935 43.7072 40.8119 43.3436 40.791 43.5698C41.0729 43.648 40.7578 44.1574 41.0445 44.3645L40.8796 44.4576C40.8587 44.6224 41.095 44.225 41.0765 44.5146L41.0889 44.0982C41.2304 44.1257 41.3141 44.1912 41.3744 44.318C41.4876 44.1278 41.5233 43.555 41.8507 43.722L41.767 43.7664C42.0168 43.686 41.943 43.9904 42.0008 44.0454L41.9442 44.0559L42.1719 44.2081C42.0021 44.1109 41.767 44.5083 41.9024 44.4491C42.21 44.4871 41.8174 44.3667 42.0365 44.2631C42.1719 44.2081 42.1522 44.4364 42.1559 44.5632L42.4033 44.4871C42.4119 44.6816 42.2384 44.5188 42.3553 44.6879L42.6531 44.411C42.7503 44.874 42.9743 44.094 43.154 44.5125C42.9386 44.6816 43.1872 44.6668 43.1663 44.8338L43.714 44.671C43.7718 44.7239 43.5811 44.8549 43.6623 44.8084C43.778 44.912 43.8248 44.6499 43.8801 44.6393C43.938 44.7577 44.2912 44.5336 44.3011 44.8549C44.6924 44.9754 44.4266 44.411 44.7897 44.5062C44.8512 44.6879 44.5164 44.6203 44.6887 44.781L45.0432 44.6203C45.0173 44.7239 44.9977 44.95 44.8598 44.9437C45.8555 44.95 46.4622 45.8632 47.3336 45.4045C47.4776 45.6074 47.256 45.5799 47.1785 45.749C47.8013 45.2988 48.1237 46.0534 48.6726 45.9033L48.6689 45.7152C49.4787 46.1401 50.3722 45.563 51.2584 45.6455L51.1464 45.5313C51.2522 45.3242 51.4442 45.2692 51.5821 45.1551C51.6104 45.2439 51.5058 45.5799 51.7519 45.451C51.6953 45.396 51.5833 45.3453 51.6104 45.2439C52.3882 45.5926 53.9524 45.1656 55.1918 45.1656C56.8397 44.7197 58.6588 44.7979 60.2796 44.4026C60.0322 44.4597 60.1135 43.9693 60.3055 44.0454C60.8593 44.7704 61.1867 43.7833 61.738 44.2525C62.6759 43.8594 63.5558 44.4322 64.4112 43.6903L64.437 43.9143C64.5749 43.9968 64.6032 43.8361 64.741 43.7938V43.8551C65.0696 43.8911 65.4573 43.6142 65.6505 43.7008V43.4451C65.8438 43.4007 65.7601 43.6311 65.9533 43.462V43.5888L66.1748 43.3204C66.1711 43.7685 66.7262 43.2887 66.8911 43.4768C67.1385 43.3648 67.6099 43.1132 67.9951 43.1576C68.0751 43.3796 68.544 43.3204 68.8467 43.4007C69.4252 43.2718 70.2535 43.1027 70.9981 43.1196L70.9734 42.8342L71.1679 42.7962C71.1679 42.8575 71.1937 42.8913 71.1654 42.923C71.3267 43.2379 71.6085 42.7814 71.7697 42.9716C71.6639 42.7201 71.6343 42.9399 71.5223 42.9462C71.3611 42.8236 71.5027 42.5298 71.7217 42.6545L71.7205 42.7158L71.862 42.551C71.8842 42.775 72.022 42.868 72.0454 43.0879C72.6805 42.9779 73.1014 42.5467 73.761 42.5911C73.702 42.8511 74.2324 42.4833 74.113 42.9336C74.5019 42.7328 74.0367 42.589 74.2078 42.2593C74.3198 42.2572 74.4318 42.1261 74.4552 42.2868C74.4072 42.3988 74.5536 42.5425 74.4663 42.5911L74.7272 42.5319C74.753 42.5637 74.6976 42.6292 74.6693 42.663C75.1998 42.3713 75.6293 42.8849 76.1044 42.5954C76.1351 42.4326 75.9124 42.5637 75.9419 42.4009C76.4207 42.0458 76.3788 42.6567 76.8256 42.3988L76.7357 42.6228C76.8797 42.4643 76.94 42.2698 77.1837 42.4284C77.2317 42.6841 76.9831 42.6545 76.8723 42.7856C77.0372 42.7814 77.452 42.6841 77.3191 42.4601C77.516 42.3629 77.5923 42.589 77.6994 42.6545C77.7043 42.589 77.5123 42.4918 77.6268 42.3629C77.8975 42.4918 78.3123 42.4559 78.6421 42.4559C78.6421 42.5214 78.6655 42.6165 78.6372 42.6503C78.8956 42.2952 78.8797 42.8744 79.2403 42.775Z" fill="white"/>
<path d="M6.93 18.144C5.73 18.144 4.686 17.88 3.798 17.352C2.922 16.824 2.244 16.074 1.764 15.102C1.284 14.13 1.044 12.984 1.044 11.664C1.044 10.332 1.278 9.18 1.746 8.208C2.226 7.224 2.91 6.474 3.798 5.958C4.686 5.43 5.73 5.166 6.93 5.166C8.142 5.166 9.192 5.43 10.08 5.958C10.968 6.474 11.646 7.224 12.114 8.208C12.594 9.18 12.834 10.326 12.834 11.646C12.834 12.966 12.594 14.118 12.114 15.102C11.646 16.074 10.968 16.824 10.08 17.352C9.192 17.88 8.142 18.144 6.93 18.144ZM6.93 16.632C8.202 16.632 9.192 16.2 9.9 15.336C10.608 14.472 10.962 13.242 10.962 11.646C10.962 10.05 10.608 8.826 9.9 7.974C9.204 7.11 8.214 6.678 6.93 6.678C5.67 6.678 4.686 7.11 3.978 7.974C3.282 8.826 2.934 10.05 2.934 11.646C2.934 13.242 3.282 14.472 3.978 15.336C4.686 16.2 5.67 16.632 6.93 16.632ZM21.0507 9C23.1507 9 24.2007 10.182 24.2007 12.546V17.226C24.2007 17.502 24.1167 17.718 23.9487 17.874C23.7927 18.018 23.5707 18.09 23.2827 18.09C23.0067 18.09 22.7847 18.012 22.6167 17.856C22.4607 17.7 22.3827 17.49 22.3827 17.226V12.636C22.3827 11.892 22.2327 11.346 21.9327 10.998C21.6447 10.65 21.1887 10.476 20.5647 10.476C19.8327 10.476 19.2447 10.704 18.8007 11.16C18.3567 11.616 18.1347 12.228 18.1347 12.996V17.226C18.1347 17.49 18.0507 17.7 17.8827 17.856C17.7267 18.012 17.5107 18.09 17.2347 18.09C16.9587 18.09 16.7367 18.012 16.5687 17.856C16.4007 17.7 16.3167 17.49 16.3167 17.226V9.9C16.3167 9.648 16.4007 9.444 16.5687 9.288C16.7487 9.12 16.9707 9.036 17.2347 9.036C17.4987 9.036 17.7087 9.114 17.8647 9.27C18.0207 9.426 18.0987 9.63 18.0987 9.882V10.62C18.3867 10.092 18.7887 9.69 19.3047 9.414C19.8207 9.138 20.4027 9 21.0507 9ZM28.7758 18.09C28.5118 18.09 28.2898 18.018 28.1098 17.874C27.9418 17.73 27.8578 17.514 27.8578 17.226V6.102C27.8578 5.814 27.9418 5.598 28.1098 5.454C28.2898 5.298 28.5118 5.22 28.7758 5.22C29.0398 5.22 29.2558 5.298 29.4238 5.454C29.5918 5.598 29.6758 5.814 29.6758 6.102V17.226C29.6758 17.514 29.5918 17.73 29.4238 17.874C29.2558 18.018 29.0398 18.09 28.7758 18.09ZM39.6332 9.576C39.7052 9.396 39.8072 9.264 39.9392 9.18C40.0832 9.096 40.2332 9.054 40.3892 9.054C40.6172 9.054 40.8152 9.132 40.9832 9.288C41.1632 9.444 41.2532 9.63 41.2532 9.846C41.2532 9.966 41.2292 10.08 41.1812 10.188L36.1772 20.808C36.1052 20.976 35.9972 21.102 35.8532 21.186C35.7212 21.282 35.5772 21.33 35.4212 21.33C35.2052 21.33 35.0072 21.258 34.8272 21.114C34.6592 20.97 34.5752 20.79 34.5752 20.574C34.5752 20.478 34.6052 20.358 34.6652 20.214L35.9072 17.568L32.4332 10.188C32.3852 10.092 32.3612 9.984 32.3612 9.864C32.3612 9.636 32.4572 9.444 32.6492 9.288C32.8412 9.132 33.0572 9.054 33.2972 9.054C33.6572 9.054 33.9152 9.222 34.0712 9.558L36.8612 15.75L39.6332 9.576ZM50.9588 18.09C50.6828 18.09 50.4608 18.006 50.2928 17.838C50.1248 17.658 50.0408 17.43 50.0408 17.154V6.21C50.0408 5.934 50.1188 5.718 50.2748 5.562C50.4428 5.394 50.6708 5.31 50.9588 5.31H57.4028C57.9788 5.31 58.2668 5.562 58.2668 6.066C58.2668 6.57 57.9788 6.822 57.4028 6.822H51.8768V10.8H57.0428C57.6188 10.8 57.9068 11.052 57.9068 11.556C57.9068 12.06 57.6188 12.312 57.0428 12.312H51.8768V17.154C51.8768 17.442 51.7928 17.67 51.6248 17.838C51.4688 18.006 51.2468 18.09 50.9588 18.09ZM64.7249 18.126C63.8609 18.126 63.0989 17.94 62.4389 17.568C61.7909 17.196 61.2869 16.668 60.9269 15.984C60.5789 15.288 60.4049 14.484 60.4049 13.572C60.4049 12.648 60.5789 11.844 60.9269 11.16C61.2869 10.464 61.7909 9.93 62.4389 9.558C63.0989 9.186 63.8609 9 64.7249 9C65.5889 9 66.3449 9.186 66.9929 9.558C67.6529 9.93 68.1569 10.464 68.5049 11.16C68.8649 11.844 69.0449 12.648 69.0449 13.572C69.0449 14.484 68.8649 15.288 68.5049 15.984C68.1569 16.668 67.6529 17.196 66.9929 17.568C66.3449 17.94 65.5889 18.126 64.7249 18.126ZM64.7249 16.686C65.5289 16.686 66.1409 16.422 66.5609 15.894C66.9929 15.366 67.2089 14.592 67.2089 13.572C67.2089 12.564 66.9929 11.796 66.5609 11.268C66.1289 10.728 65.5169 10.458 64.7249 10.458C63.9329 10.458 63.3209 10.728 62.8889 11.268C62.4569 11.796 62.2409 12.564 62.2409 13.572C62.2409 14.592 62.4509 15.366 62.8709 15.894C63.3029 16.422 63.9209 16.686 64.7249 16.686ZM76.8471 9.036C77.4231 9 77.7111 9.246 77.7111 9.774C77.7111 10.038 77.6451 10.236 77.5131 10.368C77.3811 10.5 77.1531 10.578 76.8291 10.602L76.2891 10.656C75.5331 10.728 74.9691 10.992 74.5971 11.448C74.2371 11.904 74.0571 12.456 74.0571 13.104V17.226C74.0571 17.514 73.9731 17.73 73.8051 17.874C73.6371 18.018 73.4211 18.09 73.1571 18.09C72.8931 18.09 72.6711 18.018 72.4911 17.874C72.3231 17.73 72.2391 17.514 72.2391 17.226V9.9C72.2391 9.624 72.3231 9.414 72.4911 9.27C72.6711 9.114 72.8931 9.036 73.1571 9.036C73.3971 9.036 73.5951 9.114 73.7511 9.27C73.9191 9.414 74.0031 9.618 74.0031 9.882V10.746C74.2431 10.218 74.5911 9.816 75.0471 9.54C75.5031 9.264 76.0191 9.102 76.5951 9.054L76.8471 9.036ZM87.051 18C86.763 18 86.535 17.922 86.367 17.766C86.211 17.598 86.133 17.376 86.133 17.1V6.21C86.133 5.934 86.211 5.718 86.367 5.562C86.535 5.394 86.763 5.31 87.051 5.31H90.579C92.631 5.31 94.221 5.862 95.349 6.966C96.477 8.07 97.041 9.63 97.041 11.646C97.041 13.662 96.477 15.228 95.349 16.344C94.221 17.448 92.631 18 90.579 18H87.051ZM90.471 16.452C93.591 16.452 95.151 14.85 95.151 11.646C95.151 8.454 93.591 6.858 90.471 6.858H87.987V16.452H90.471ZM107.393 15.786C107.561 15.786 107.699 15.852 107.807 15.984C107.915 16.116 107.969 16.284 107.969 16.488C107.969 16.836 107.753 17.13 107.321 17.37C106.901 17.61 106.439 17.796 105.935 17.928C105.443 18.06 104.969 18.126 104.513 18.126C103.121 18.126 102.023 17.724 101.219 16.92C100.415 16.104 100.013 14.994 100.013 13.59C100.013 12.69 100.187 11.892 100.535 11.196C100.895 10.5 101.393 9.96 102.029 9.576C102.677 9.192 103.409 9 104.225 9C105.401 9 106.331 9.378 107.015 10.134C107.699 10.89 108.041 11.91 108.041 13.194C108.041 13.674 107.825 13.914 107.393 13.914H101.831C101.951 15.774 102.845 16.704 104.513 16.704C104.957 16.704 105.341 16.644 105.665 16.524C105.989 16.404 106.331 16.248 106.691 16.056C106.727 16.032 106.823 15.984 106.979 15.912C107.147 15.828 107.285 15.786 107.393 15.786ZM104.261 10.332C103.565 10.332 103.007 10.554 102.587 10.998C102.167 11.442 101.915 12.066 101.831 12.87H106.475C106.439 12.054 106.229 11.43 105.845 10.998C105.473 10.554 104.945 10.332 104.261 10.332ZM114.274 18.126C113.05 18.126 112.048 17.874 111.268 17.37C111.052 17.238 110.896 17.1 110.8 16.956C110.716 16.812 110.674 16.65 110.674 16.47C110.674 16.278 110.728 16.116 110.836 15.984C110.944 15.852 111.082 15.786 111.25 15.786C111.406 15.786 111.652 15.882 111.988 16.074C112.348 16.266 112.696 16.422 113.032 16.542C113.38 16.662 113.812 16.722 114.328 16.722C114.904 16.722 115.354 16.62 115.678 16.416C116.002 16.212 116.164 15.924 116.164 15.552C116.164 15.312 116.098 15.12 115.966 14.976C115.846 14.832 115.63 14.706 115.318 14.598C115.006 14.478 114.544 14.352 113.932 14.22C112.876 13.992 112.114 13.686 111.646 13.302C111.19 12.906 110.962 12.372 110.962 11.7C110.962 11.184 111.112 10.722 111.412 10.314C111.712 9.894 112.126 9.57 112.654 9.342C113.182 9.114 113.782 9 114.454 9C114.934 9 115.402 9.066 115.858 9.198C116.314 9.318 116.716 9.498 117.064 9.738C117.46 10.002 117.658 10.308 117.658 10.656C117.658 10.848 117.598 11.01 117.478 11.142C117.37 11.274 117.238 11.34 117.082 11.34C116.974 11.34 116.866 11.316 116.758 11.268C116.65 11.22 116.506 11.142 116.326 11.034C116.002 10.842 115.696 10.692 115.408 10.584C115.132 10.476 114.784 10.422 114.364 10.422C113.86 10.422 113.452 10.53 113.14 10.746C112.84 10.962 112.69 11.256 112.69 11.628C112.69 11.964 112.828 12.228 113.104 12.42C113.392 12.6 113.926 12.774 114.706 12.942C115.51 13.11 116.14 13.302 116.596 13.518C117.052 13.734 117.376 14.004 117.568 14.328C117.772 14.64 117.874 15.042 117.874 15.534C117.874 16.314 117.544 16.944 116.884 17.424C116.236 17.892 115.366 18.126 114.274 18.126ZM128.448 16.578C128.664 16.758 128.772 16.98 128.772 17.244C128.772 17.472 128.694 17.67 128.538 17.838C128.382 18.006 128.196 18.09 127.98 18.09C127.752 18.09 127.548 18.006 127.368 17.838L122.886 13.878V17.208C122.886 17.496 122.802 17.718 122.634 17.874C122.466 18.018 122.25 18.09 121.986 18.09C121.722 18.09 121.5 18.018 121.32 17.874C121.152 17.718 121.068 17.496 121.068 17.208V6.102C121.068 5.814 121.152 5.598 121.32 5.454C121.5 5.298 121.722 5.22 121.986 5.22C122.25 5.22 122.466 5.298 122.634 5.454C122.802 5.598 122.886 5.814 122.886 6.102V13.158L126.99 9.324C127.194 9.144 127.392 9.054 127.584 9.054C127.812 9.054 128.01 9.138 128.178 9.306C128.346 9.474 128.43 9.672 128.43 9.9C128.43 10.128 128.328 10.338 128.124 10.53L124.92 13.464L128.448 16.578ZM135.786 16.704C136.05 16.728 136.236 16.8 136.344 16.92C136.464 17.028 136.524 17.184 136.524 17.388C136.524 17.628 136.428 17.814 136.236 17.946C136.056 18.066 135.786 18.114 135.426 18.09L134.94 18.054C133.968 17.982 133.242 17.688 132.762 17.172C132.282 16.644 132.042 15.87 132.042 14.85V10.62H130.962C130.434 10.62 130.17 10.386 130.17 9.918C130.17 9.702 130.236 9.534 130.368 9.414C130.512 9.282 130.71 9.216 130.962 9.216H132.042V7.362C132.042 7.086 132.12 6.87 132.276 6.714C132.444 6.558 132.666 6.48 132.942 6.48C133.218 6.48 133.44 6.558 133.608 6.714C133.776 6.87 133.86 7.086 133.86 7.362V9.216H135.642C135.894 9.216 136.086 9.282 136.218 9.414C136.362 9.534 136.434 9.702 136.434 9.918C136.434 10.146 136.362 10.32 136.218 10.44C136.086 10.56 135.894 10.62 135.642 10.62H133.86V14.976C133.86 15.54 133.974 15.954 134.202 16.218C134.442 16.482 134.802 16.632 135.282 16.668L135.786 16.704ZM142.815 18.126C141.951 18.126 141.189 17.94 140.529 17.568C139.881 17.196 139.377 16.668 139.017 15.984C138.669 15.288 138.495 14.484 138.495 13.572C138.495 12.648 138.669 11.844 139.017 11.16C139.377 10.464 139.881 9.93 140.529 9.558C141.189 9.186 141.951 9 142.815 9C143.679 9 144.435 9.186 145.083 9.558C145.743 9.93 146.247 10.464 146.595 11.16C146.955 11.844 147.135 12.648 147.135 13.572C147.135 14.484 146.955 15.288 146.595 15.984C146.247 16.668 145.743 17.196 145.083 17.568C144.435 17.94 143.679 18.126 142.815 18.126ZM142.815 16.686C143.619 16.686 144.231 16.422 144.651 15.894C145.083 15.366 145.299 14.592 145.299 13.572C145.299 12.564 145.083 11.796 144.651 11.268C144.219 10.728 143.607 10.458 142.815 10.458C142.023 10.458 141.411 10.728 140.979 11.268C140.547 11.796 140.331 12.564 140.331 13.572C140.331 14.592 140.541 15.366 140.961 15.894C141.393 16.422 142.011 16.686 142.815 16.686ZM155.046 9C155.802 9 156.474 9.192 157.062 9.576C157.662 9.96 158.124 10.5 158.448 11.196C158.784 11.892 158.952 12.696 158.952 13.608C158.952 14.508 158.79 15.3 158.466 15.984C158.142 16.668 157.68 17.196 157.08 17.568C156.492 17.94 155.814 18.126 155.046 18.126C154.386 18.126 153.804 17.988 153.3 17.712C152.796 17.424 152.412 17.016 152.148 16.488V20.502C152.148 20.754 152.064 20.952 151.896 21.096C151.74 21.252 151.53 21.33 151.266 21.33C150.99 21.33 150.762 21.252 150.582 21.096C150.414 20.94 150.33 20.73 150.33 20.466V9.918C150.33 9.654 150.414 9.444 150.582 9.288C150.75 9.12 150.972 9.036 151.248 9.036C151.512 9.036 151.728 9.12 151.896 9.288C152.064 9.444 152.148 9.654 152.148 9.918V10.656C152.412 10.128 152.796 9.72 153.3 9.432C153.804 9.144 154.386 9 155.046 9ZM154.614 16.686C155.406 16.686 156.018 16.422 156.45 15.894C156.882 15.354 157.098 14.592 157.098 13.608C157.098 12.612 156.876 11.838 156.432 11.286C156 10.734 155.394 10.458 154.614 10.458C153.822 10.458 153.21 10.728 152.778 11.268C152.358 11.808 152.148 12.576 152.148 13.572C152.148 14.568 152.358 15.336 152.778 15.876C153.21 16.416 153.822 16.686 154.614 16.686Z" fill="white"/>
</svg>
